<svg xmlns="http://www.w3.org/2000/svg" width="1200" height="918" viewBox="0 0 1200 918">
<style>
text{font-family:'Times New Roman',Times,serif;fill:#111}
.axis{stroke:#111;stroke-width:1.7}
.grid{stroke:#d8d8d8;stroke-width:.75}
.title{font-size:20px;font-weight:700}
.panel-title{font-size:15px;font-weight:700}
.label{font-size:13px}
.tick{font-size:11px;fill:#444}
.legend{font-size:12px}
</style>
<rect width="100%" height="100%" fill="#ffffff"/>
<text class="title" x="600.0" y="30" text-anchor="middle">Fig. 6 reproduction: return maps, S1=0.5, S2=0.2</text>
<g id="panel-1">
<defs>
<clipPath id="clip-panel-1"><rect x="164.0" y="96.0" width="324.0" height="324.0"/></clipPath>
</defs>
<text class="panel-title" x="326.0" y="73.0" text-anchor="middle">(a) Gamma=0.2, periodic</text>
<rect x="164.0" y="96.0" width="324.0" height="324.0" fill="#fff"/>
<line class="axis" x1="164.0" y1="420.0" x2="164.0" y2="425.0"/>
<text class="tick" x="164.0" y="440.0" text-anchor="middle">0</text>
<line class="axis" x1="272.0" y1="420.0" x2="272.0" y2="425.0"/>
<text class="tick" x="272.0" y="440.0" text-anchor="middle">0.5</text>
<line class="axis" x1="380.0" y1="420.0" x2="380.0" y2="425.0"/>
<text class="tick" x="380.0" y="440.0" text-anchor="middle">1</text>
<line class="axis" x1="488.0" y1="420.0" x2="488.0" y2="425.0"/>
<text class="tick" x="488.0" y="440.0" text-anchor="middle">1.5</text>
<line class="axis" x1="159.0" y1="420.0" x2="164.0" y2="420.0"/>
<text class="tick" x="155.0" y="424.0" text-anchor="end">0</text>
<line class="axis" x1="159.0" y1="312.0" x2="164.0" y2="312.0"/>
<text class="tick" x="155.0" y="316.0" text-anchor="end">0.5</text>
<line class="axis" x1="159.0" y1="204.0" x2="164.0" y2="204.0"/>
<text class="tick" x="155.0" y="208.0" text-anchor="end">1</text>
<line class="axis" x1="159.0" y1="96.0" x2="164.0" y2="96.0"/>
<text class="tick" x="155.0" y="100.0" text-anchor="end">1.5</text>
<rect class="axis" x="164.0" y="96.0" width="324.0" height="324.0" fill="none"/>
<g clip-path="url(#clip-panel-1)">
<polyline points="164.00,420.00 488.00,96.00" fill="none" stroke="#777777" stroke-width="1.10" stroke-linejoin="round" stroke-linecap="round"><title></title></polyline>
<path d="M294.04,312.15h2.50v2.50h-2.50zM246.67,355.24h2.50v2.50h-2.50zM208.31,388.59h2.50v2.50h-2.50zM180.00,412.07h2.50v2.50h-2.50zM376.80,233.29h2.50v2.50h-2.50zM320.43,287.46h2.50v2.50h-2.50zM269.35,334.83h2.50v2.50h-2.50zM226.26,373.19h2.50v2.50h-2.50zM192.91,401.50h2.50v2.50h-2.50zM169.43,204.70h2.50v2.50h-2.50zM348.21,261.07h2.50v2.50h-2.50zM294.04,312.15h2.50v2.50h-2.50zM246.67,355.24h2.50v2.50h-2.50zM208.31,388.59h2.50v2.50h-2.50zM180.00,412.07h2.50v2.50h-2.50zM376.80,233.29h2.50v2.50h-2.50zM320.43,287.46h2.50v2.50h-2.50zM269.35,334.83h2.50v2.50h-2.50zM226.26,373.19h2.50v2.50h-2.50zM192.91,401.50h2.50v2.50h-2.50zM169.43,204.70h2.50v2.50h-2.50zM348.21,261.07h2.50v2.50h-2.50zM294.04,312.15h2.50v2.50h-2.50zM246.67,355.24h2.50v2.50h-2.50zM208.31,388.59h2.50v2.50h-2.50zM180.00,412.07h2.50v2.50h-2.50zM376.80,233.29h2.50v2.50h-2.50zM320.43,287.46h2.50v2.50h-2.50zM269.35,334.83h2.50v2.50h-2.50zM226.26,373.19h2.50v2.50h-2.50zM192.91,401.50h2.50v2.50h-2.50zM169.43,204.70h2.50v2.50h-2.50zM348.21,261.07h2.50v2.50h-2.50zM294.04,312.15h2.50v2.50h-2.50zM246.67,355.24h2.50v2.50h-2.50zM208.31,388.59h2.50v2.50h-2.50zM180.00,412.07h2.50v2.50h-2.50zM376.80,233.29h2.50v2.50h-2.50zM320.43,287.46h2.50v2.50h-2.50zM269.35,334.83h2.50v2.50h-2.50zM226.26,373.19h2.50v2.50h-2.50zM192.91,401.50h2.50v2.50h-2.50zM169.43,204.70h2.50v2.50h-2.50zM348.21,261.07h2.50v2.50h-2.50zM294.04,312.15h2.50v2.50h-2.50zM246.67,355.24h2.50v2.50h-2.50zM208.31,388.59h2.50v2.50h-2.50zM180.00,412.07h2.50v2.50h-2.50zM376.80,233.29h2.50v2.50h-2.50zM320.43,287.46h2.50v2.50h-2.50zM269.35,334.83h2.50v2.50h-2.50zM226.26,373.19h2.50v2.50h-2.50zM192.91,401.50h2.50v2.50h-2.50zM169.43,204.70h2.50v2.50h-2.50zM348.21,261.07h2.50v2.50h-2.50zM294.04,312.15h2.50v2.50h-2.50zM246.67,355.24h2.50v2.50h-2.50zM208.31,388.59h2.50v2.50h-2.50zM180.00,412.07h2.50v2.50h-2.50zM376.80,233.29h2.50v2.50h-2.50zM320.43,287.46h2.50v2.50h-2.50zM269.35,334.83h2.50v2.50h-2.50zM226.26,373.19h2.50v2.50h-2.50zM192.91,401.50h2.50v2.50h-2.50zM169.43,204.70h2.50v2.50h-2.50zM348.21,261.07h2.50v2.50h-2.50zM294.04,312.15h2.50v2.50h-2.50zM246.67,355.24h2.50v2.50h-2.50zM208.31,388.59h2.50v2.50h-2.50zM180.00,412.07h2.50v2.50h-2.50zM376.80,233.29h2.50v2.50h-2.50zM320.43,287.46h2.50v2.50h-2.50zM269.35,334.83h2.50v2.50h-2.50zM226.26,373.19h2.50v2.50h-2.50zM192.91,401.50h2.50v2.50h-2.50zM169.43,204.70h2.50v2.50h-2.50zM348.21,261.07h2.50v2.50h-2.50zM294.04,312.15h2.50v2.50h-2.50zM246.67,355.24h2.50v2.50h-2.50zM208.31,388.59h2.50v2.50h-2.50zM180.00,412.07h2.50v2.50h-2.50zM376.80,233.29h2.50v2.50h-2.50zM320.43,287.46h2.50v2.50h-2.50zM269.35,334.83h2.50v2.50h-2.50zM226.26,373.19h2.50v2.50h-2.50zM192.91,401.50h2.50v2.50h-2.50zM169.43,204.70h2.50v2.50h-2.50zM348.21,261.07h2.50v2.50h-2.50zM294.04,312.15h2.50v2.50h-2.50zM246.67,355.24h2.50v2.50h-2.50zM208.31,388.59h2.50v2.50h-2.50zM180.00,412.07h2.50v2.50h-2.50zM376.80,233.29h2.50v2.50h-2.50zM320.43,287.46h2.50v2.50h-2.50zM269.35,334.83h2.50v2.50h-2.50zM226.26,373.19h2.50v2.50h-2.50zM192.91,401.50h2.50v2.50h-2.50zM169.43,204.70h2.50v2.50h-2.50zM348.21,261.07h2.50v2.50h-2.50zM294.04,312.15h2.50v2.50h-2.50zM246.67,355.24h2.50v2.50h-2.50zM208.31,388.59h2.50v2.50h-2.50zM180.00,412.07h2.50v2.50h-2.50zM376.80,233.29h2.50v2.50h-2.50zM320.43,287.46h2.50v2.50h-2.50zM269.35,334.83h2.50v2.50h-2.50zM226.26,373.19h2.50v2.50h-2.50zM192.91,401.50h2.50v2.50h-2.50zM169.43,204.70h2.50v2.50h-2.50zM348.21,261.07h2.50v2.50h-2.50zM294.04,312.15h2.50v2.50h-2.50zM246.67,355.24h2.50v2.50h-2.50zM208.31,388.59h2.50v2.50h-2.50zM180.00,412.07h2.50v2.50h-2.50zM376.80,233.29h2.50v2.50h-2.50zM320.43,287.46h2.50v2.50h-2.50zM269.35,334.83h2.50v2.50h-2.50zM226.26,373.19h2.50v2.50h-2.50zM192.91,401.50h2.50v2.50h-2.50zM169.43,204.70h2.50v2.50h-2.50zM348.21,261.07h2.50v2.50h-2.50zM294.04,312.15h2.50v2.50h-2.50zM246.67,355.24h2.50v2.50h-2.50zM208.31,388.59h2.50v2.50h-2.50zM180.00,412.07h2.50v2.50h-2.50zM376.80,233.29h2.50v2.50h-2.50zM320.43,287.46h2.50v2.50h-2.50zM269.35,334.83h2.50v2.50h-2.50zM226.26,373.19h2.50v2.50h-2.50zM192.91,401.50h2.50v2.50h-2.50zM169.43,204.70h2.50v2.50h-2.50zM348.21,261.07h2.50v2.50h-2.50zM294.04,312.15h2.50v2.50h-2.50zM246.67,355.24h2.50v2.50h-2.50zM208.31,388.59h2.50v2.50h-2.50zM180.00,412.07h2.50v2.50h-2.50zM376.80,233.29h2.50v2.50h-2.50zM320.43,287.46h2.50v2.50h-2.50zM269.35,334.83h2.50v2.50h-2.50zM226.26,373.19h2.50v2.50h-2.50zM192.91,401.50h2.50v2.50h-2.50zM169.43,204.70h2.50v2.50h-2.50zM348.21,261.07h2.50v2.50h-2.50zM294.04,312.15h2.50v2.50h-2.50zM246.67,355.24h2.50v2.50h-2.50zM208.31,388.59h2.50v2.50h-2.50zM180.00,412.07h2.50v2.50h-2.50zM376.80,233.29h2.50v2.50h-2.50zM320.43,287.46h2.50v2.50h-2.50zM269.35,334.83h2.50v2.50h-2.50zM226.26,373.19h2.50v2.50h-2.50zM192.91,401.50h2.50v2.50h-2.50zM169.43,204.70h2.50v2.50h-2.50zM348.21,261.07h2.50v2.50h-2.50zM294.04,312.15h2.50v2.50h-2.50zM246.67,355.24h2.50v2.50h-2.50zM208.31,388.59h2.50v2.50h-2.50zM180.00,412.07h2.50v2.50h-2.50zM376.80,233.29h2.50v2.50h-2.50zM320.43,287.46h2.50v2.50h-2.50zM269.35,334.83h2.50v2.50h-2.50zM226.26,373.19h2.50v2.50h-2.50zM192.91,401.50h2.50v2.50h-2.50zM169.43,204.70h2.50v2.50h-2.50zM348.21,261.07h2.50v2.50h-2.50zM294.04,312.15h2.50v2.50h-2.50zM246.67,355.24h2.50v2.50h-2.50zM208.31,388.59h2.50v2.50h-2.50zM180.00,412.07h2.50v2.50h-2.50zM376.80,233.29h2.50v2.50h-2.50zM320.43,287.46h2.50v2.50h-2.50zM269.35,334.83h2.50v2.50h-2.50zM226.26,373.19h2.50v2.50h-2.50zM192.91,401.50h2.50v2.50h-2.50zM169.43,204.70h2.50v2.50h-2.50zM348.21,261.07h2.50v2.50h-2.50zM294.04,312.15h2.50v2.50h-2.50zM246.67,355.24h2.50v2.50h-2.50zM208.31,388.59h2.50v2.50h-2.50zM180.00,412.07h2.50v2.50h-2.50zM376.80,233.29h2.50v2.50h-2.50zM320.43,287.46h2.50v2.50h-2.50zM269.35,334.83h2.50v2.50h-2.50zM226.26,373.19h2.50v2.50h-2.50zM192.91,401.50h2.50v2.50h-2.50zM169.43,204.70h2.50v2.50h-2.50zM348.21,261.07h2.50v2.50h-2.50zM294.04,312.15h2.50v2.50h-2.50zM246.67,355.24h2.50v2.50h-2.50zM208.31,388.59h2.50v2.50h-2.50zM180.00,412.07h2.50v2.50h-2.50zM376.80,233.29h2.50v2.50h-2.50zM320.43,287.46h2.50v2.50h-2.50zM269.35,334.83h2.50v2.50h-2.50zM226.26,373.19h2.50v2.50h-2.50zM192.91,401.50h2.50v2.50h-2.50zM169.43,204.70h2.50v2.50h-2.50zM348.21,261.07h2.50v2.50h-2.50zM294.04,312.15h2.50v2.50h-2.50zM246.67,355.24h2.50v2.50h-2.50zM208.31,388.59h2.50v2.50h-2.50zM180.00,412.07h2.50v2.50h-2.50zM376.80,233.29h2.50v2.50h-2.50zM320.43,287.46h2.50v2.50h-2.50zM269.35,334.83h2.50v2.50h-2.50zM226.26,373.19h2.50v2.50h-2.50zM192.91,401.50h2.50v2.50h-2.50zM169.43,204.70h2.50v2.50h-2.50zM348.21,261.07h2.50v2.50h-2.50zM294.04,312.15h2.50v2.50h-2.50zM246.67,355.24h2.50v2.50h-2.50zM208.31,388.59h2.50v2.50h-2.50zM180.00,412.07h2.50v2.50h-2.50zM376.80,233.29h2.50v2.50h-2.50zM320.43,287.46h2.50v2.50h-2.50zM269.35,334.83h2.50v2.50h-2.50zM226.26,373.19h2.50v2.50h-2.50zM192.91,401.50h2.50v2.50h-2.50zM169.43,204.70h2.50v2.50h-2.50zM348.21,261.07h2.50v2.50h-2.50zM294.04,312.15h2.50v2.50h-2.50zM246.67,355.24h2.50v2.50h-2.50zM208.31,388.59h2.50v2.50h-2.50zM180.00,412.07h2.50v2.50h-2.50zM376.80,233.29h2.50v2.50h-2.50zM320.43,287.46h2.50v2.50h-2.50zM269.35,334.83h2.50v2.50h-2.50zM226.26,373.19h2.50v2.50h-2.50zM192.91,401.50h2.50v2.50h-2.50zM169.43,204.70h2.50v2.50h-2.50zM348.21,261.07h2.50v2.50h-2.50zM294.04,312.15h2.50v2.50h-2.50zM246.67,355.24h2.50v2.50h-2.50zM208.31,388.59h2.50v2.50h-2.50zM180.00,412.07h2.50v2.50h-2.50zM376.80,233.29h2.50v2.50h-2.50zM320.43,287.46h2.50v2.50h-2.50zM269.35,334.83h2.50v2.50h-2.50zM226.26,373.19h2.50v2.50h-2.50zM192.91,401.50h2.50v2.50h-2.50zM169.43,204.70h2.50v2.50h-2.50zM348.21,261.07h2.50v2.50h-2.50zM294.04,312.15h2.50v2.50h-2.50zM246.67,355.24h2.50v2.50h-2.50zM208.31,388.59h2.50v2.50h-2.50zM180.00,412.07h2.50v2.50h-2.50zM376.80,233.29h2.50v2.50h-2.50zM320.43,287.46h2.50v2.50h-2.50zM269.35,334.83h2.50v2.50h-2.50zM226.26,373.19h2.50v2.50h-2.50zM192.91,401.50h2.50v2.50h-2.50zM169.43,204.70h2.50v2.50h-2.50zM348.21,261.07h2.50v2.50h-2.50zM294.04,312.15h2.50v2.50h-2.50zM246.67,355.24h2.50v2.50h-2.50zM208.31,388.59h2.50v2.50h-2.50zM180.00,412.07h2.50v2.50h-2.50zM376.80,233.29h2.50v2.50h-2.50zM320.43,287.46h2.50v2.50h-2.50zM269.35,334.83h2.50v2.50h-2.50zM226.26,373.19h2.50v2.50h-2.50zM192.91,401.50h2.50v2.50h-2.50zM169.43,204.70h2.50v2.50h-2.50zM348.21,261.07h2.50v2.50h-2.50zM294.04,312.15h2.50v2.50h-2.50zM246.67,355.24h2.50v2.50h-2.50zM208.31,388.59h2.50v2.50h-2.50zM180.00,412.07h2.50v2.50h-2.50zM376.80,233.29h2.50v2.50h-2.50zM320.43,287.46h2.50v2.50h-2.50zM269.35,334.83h2.50v2.50h-2.50zM226.26,373.19h2.50v2.50h-2.50zM192.91,401.50h2.50v2.50h-2.50zM169.43,204.70h2.50v2.50h-2.50zM348.21,261.07h2.50v2.50h-2.50zM294.04,312.15h2.50v2.50h-2.50zM246.67,355.24h2.50v2.50h-2.50zM208.31,388.59h2.50v2.50h-2.50zM180.00,412.07h2.50v2.50h-2.50zM376.80,233.29h2.50v2.50h-2.50zM320.43,287.46h2.50v2.50h-2.50zM269.35,334.83h2.50v2.50h-2.50zM226.26,373.19h2.50v2.50h-2.50zM192.91,401.50h2.50v2.50h-2.50zM169.43,204.70h2.50v2.50h-2.50zM348.21,261.07h2.50v2.50h-2.50zM294.04,312.15h2.50v2.50h-2.50zM246.67,355.24h2.50v2.50h-2.50zM208.31,388.59h2.50v2.50h-2.50zM180.00,412.07h2.50v2.50h-2.50zM376.80,233.29h2.50v2.50h-2.50zM320.43,287.46h2.50v2.50h-2.50zM269.35,334.83h2.50v2.50h-2.50zM226.26,373.19h2.50v2.50h-2.50zM192.91,401.50h2.50v2.50h-2.50zM169.43,204.70h2.50v2.50h-2.50zM348.21,261.07h2.50v2.50h-2.50zM294.04,312.15h2.50v2.50h-2.50zM246.67,355.24h2.50v2.50h-2.50zM208.31,388.59h2.50v2.50h-2.50zM180.00,412.07h2.50v2.50h-2.50zM376.80,233.29h2.50v2.50h-2.50zM320.43,287.46h2.50v2.50h-2.50zM269.35,334.83h2.50v2.50h-2.50zM226.26,373.19h2.50v2.50h-2.50zM192.91,401.50h2.50v2.50h-2.50zM169.43,204.70h2.50v2.50h-2.50zM348.21,261.07h2.50v2.50h-2.50zM294.04,312.15h2.50v2.50h-2.50zM246.67,355.24h2.50v2.50h-2.50zM208.31,388.59h2.50v2.50h-2.50zM180.00,412.07h2.50v2.50h-2.50zM376.80,233.29h2.50v2.50h-2.50zM320.43,287.46h2.50v2.50h-2.50zM269.35,334.83h2.50v2.50h-2.50zM226.26,373.19h2.50v2.50h-2.50zM192.91,401.50h2.50v2.50h-2.50zM169.43,204.70h2.50v2.50h-2.50zM348.21,261.07h2.50v2.50h-2.50zM294.04,312.15h2.50v2.50h-2.50zM246.67,355.24h2.50v2.50h-2.50zM208.31,388.59h2.50v2.50h-2.50zM180.00,412.07h2.50v2.50h-2.50zM376.80,233.29h2.50v2.50h-2.50zM320.43,287.46h2.50v2.50h-2.50zM269.35,334.83h2.50v2.50h-2.50zM226.26,373.19h2.50v2.50h-2.50zM192.91,401.50h2.50v2.50h-2.50zM169.43,204.70h2.50v2.50h-2.50zM348.21,261.07h2.50v2.50h-2.50zM294.04,312.15h2.50v2.50h-2.50zM246.67,355.24h2.50v2.50h-2.50zM208.31,388.59h2.50v2.50h-2.50zM180.00,412.07h2.50v2.50h-2.50zM376.80,233.29h2.50v2.50h-2.50zM320.43,287.46h2.50v2.50h-2.50zM269.35,334.83h2.50v2.50h-2.50zM226.26,373.19h2.50v2.50h-2.50zM192.91,401.50h2.50v2.50h-2.50zM169.43,204.70h2.50v2.50h-2.50zM348.21,261.07h2.50v2.50h-2.50zM294.04,312.15h2.50v2.50h-2.50zM246.67,355.24h2.50v2.50h-2.50zM208.31,388.59h2.50v2.50h-2.50zM180.00,412.07h2.50v2.50h-2.50zM376.80,233.29h2.50v2.50h-2.50zM320.43,287.46h2.50v2.50h-2.50zM269.35,334.83h2.50v2.50h-2.50zM226.26,373.19h2.50v2.50h-2.50zM192.91,401.50h2.50v2.50h-2.50zM169.43,204.70h2.50v2.50h-2.50zM348.21,261.07h2.50v2.50h-2.50zM294.04,312.15h2.50v2.50h-2.50zM246.67,355.24h2.50v2.50h-2.50zM208.31,388.59h2.50v2.50h-2.50zM180.00,412.07h2.50v2.50h-2.50zM376.80,233.29h2.50v2.50h-2.50zM320.43,287.46h2.50v2.50h-2.50zM269.35,334.83h2.50v2.50h-2.50zM226.26,373.19h2.50v2.50h-2.50zM192.91,401.50h2.50v2.50h-2.50zM169.43,204.70h2.50v2.50h-2.50zM348.21,261.07h2.50v2.50h-2.50zM294.04,312.15h2.50v2.50h-2.50zM246.67,355.24h2.50v2.50h-2.50zM208.31,388.59h2.50v2.50h-2.50zM180.00,412.07h2.50v2.50h-2.50zM376.80,233.29h2.50v2.50h-2.50zM320.43,287.46h2.50v2.50h-2.50zM269.35,334.83h2.50v2.50h-2.50zM226.26,373.19h2.50v2.50h-2.50zM192.91,401.50h2.50v2.50h-2.50zM169.43,204.70h2.50v2.50h-2.50zM348.21,261.07h2.50v2.50h-2.50zM294.04,312.15h2.50v2.50h-2.50zM246.67,355.24h2.50v2.50h-2.50zM208.31,388.59h2.50v2.50h-2.50zM180.00,412.07h2.50v2.50h-2.50zM376.80,233.29h2.50v2.50h-2.50zM320.43,287.46h2.50v2.50h-2.50zM269.35,334.83h2.50v2.50h-2.50zM226.26,373.19h2.50v2.50h-2.50zM192.91,401.50h2.50v2.50h-2.50zM169.43,204.70h2.50v2.50h-2.50zM348.21,261.07h2.50v2.50h-2.50zM294.04,312.15h2.50v2.50h-2.50zM246.67,355.24h2.50v2.50h-2.50zM208.31,388.59h2.50v2.50h-2.50zM180.00,412.07h2.50v2.50h-2.50zM376.80,233.29h2.50v2.50h-2.50zM320.43,287.46h2.50v2.50h-2.50zM269.35,334.83h2.50v2.50h-2.50zM226.26,373.19h2.50v2.50h-2.50zM192.91,401.50h2.50v2.50h-2.50zM169.43,204.70h2.50v2.50h-2.50zM348.21,261.07h2.50v2.50h-2.50zM294.04,312.15h2.50v2.50h-2.50zM246.67,355.24h2.50v2.50h-2.50zM208.31,388.59h2.50v2.50h-2.50zM180.00,412.07h2.50v2.50h-2.50zM376.80,233.29h2.50v2.50h-2.50zM320.43,287.46h2.50v2.50h-2.50zM269.35,334.83h2.50v2.50h-2.50zM226.26,373.19h2.50v2.50h-2.50zM192.91,401.50h2.50v2.50h-2.50zM169.43,204.70h2.50v2.50h-2.50zM348.21,261.07h2.50v2.50h-2.50zM294.04,312.15h2.50v2.50h-2.50zM246.67,355.24h2.50v2.50h-2.50zM208.31,388.59h2.50v2.50h-2.50zM180.00,412.07h2.50v2.50h-2.50zM376.80,233.29h2.50v2.50h-2.50zM320.43,287.46h2.50v2.50h-2.50zM269.35,334.83h2.50v2.50h-2.50zM226.26,373.19h2.50v2.50h-2.50zM192.91,401.50h2.50v2.50h-2.50zM169.43,204.70h2.50v2.50h-2.50zM348.21,261.07h2.50v2.50h-2.50zM294.04,312.15h2.50v2.50h-2.50zM246.67,355.24h2.50v2.50h-2.50zM208.31,388.59h2.50v2.50h-2.50zM180.00,412.07h2.50v2.50h-2.50zM376.80,233.29h2.50v2.50h-2.50zM320.43,287.46h2.50v2.50h-2.50zM269.35,334.83h2.50v2.50h-2.50zM226.26,373.19h2.50v2.50h-2.50zM192.91,401.50h2.50v2.50h-2.50zM169.43,204.70h2.50v2.50h-2.50zM348.21,261.07h2.50v2.50h-2.50zM294.04,312.15h2.50v2.50h-2.50zM246.67,355.24h2.50v2.50h-2.50zM208.31,388.59h2.50v2.50h-2.50zM180.00,412.07h2.50v2.50h-2.50zM376.80,233.29h2.50v2.50h-2.50zM320.43,287.46h2.50v2.50h-2.50zM269.35,334.83h2.50v2.50h-2.50zM226.26,373.19h2.50v2.50h-2.50zM192.91,401.50h2.50v2.50h-2.50zM169.43,204.70h2.50v2.50h-2.50zM348.21,261.07h2.50v2.50h-2.50zM294.04,312.15h2.50v2.50h-2.50zM246.67,355.24h2.50v2.50h-2.50zM208.31,388.59h2.50v2.50h-2.50zM180.00,412.07h2.50v2.50h-2.50zM376.80,233.29h2.50v2.50h-2.50zM320.43,287.46h2.50v2.50h-2.50zM269.35,334.83h2.50v2.50h-2.50zM226.26,373.19h2.50v2.50h-2.50zM192.91,401.50h2.50v2.50h-2.50zM169.43,204.70h2.50v2.50h-2.50zM348.21,261.07h2.50v2.50h-2.50zM294.04,312.15h2.50v2.50h-2.50zM246.67,355.24h2.50v2.50h-2.50zM208.31,388.59h2.50v2.50h-2.50zM180.00,412.07h2.50v2.50h-2.50zM376.80,233.29h2.50v2.50h-2.50zM320.43,287.46h2.50v2.50h-2.50zM269.35,334.83h2.50v2.50h-2.50zM226.26,373.19h2.50v2.50h-2.50zM192.91,401.50h2.50v2.50h-2.50zM169.43,204.70h2.50v2.50h-2.50zM348.21,261.07h2.50v2.50h-2.50zM294.04,312.15h2.50v2.50h-2.50zM246.67,355.24h2.50v2.50h-2.50zM208.31,388.59h2.50v2.50h-2.50zM180.00,412.07h2.50v2.50h-2.50zM376.80,233.29h2.50v2.50h-2.50zM320.43,287.46h2.50v2.50h-2.50zM269.35,334.83h2.50v2.50h-2.50zM226.26,373.19h2.50v2.50h-2.50zM192.91,401.50h2.50v2.50h-2.50zM169.43,204.70h2.50v2.50h-2.50zM348.21,261.07h2.50v2.50h-2.50zM294.04,312.15h2.50v2.50h-2.50zM246.67,355.24h2.50v2.50h-2.50zM208.31,388.59h2.50v2.50h-2.50zM180.00,412.07h2.50v2.50h-2.50zM376.80,233.29h2.50v2.50h-2.50zM320.43,287.46h2.50v2.50h-2.50zM269.35,334.83h2.50v2.50h-2.50zM226.26,373.19h2.50v2.50h-2.50zM192.91,401.50h2.50v2.50h-2.50zM169.43,204.70h2.50v2.50h-2.50zM348.21,261.07h2.50v2.50h-2.50zM294.04,312.15h2.50v2.50h-2.50zM246.67,355.24h2.50v2.50h-2.50zM208.31,388.59h2.50v2.50h-2.50zM180.00,412.07h2.50v2.50h-2.50zM376.80,233.29h2.50v2.50h-2.50zM320.43,287.46h2.50v2.50h-2.50zM269.35,334.83h2.50v2.50h-2.50zM226.26,373.19h2.50v2.50h-2.50zM192.91,401.50h2.50v2.50h-2.50zM169.43,204.70h2.50v2.50h-2.50zM348.21,261.07h2.50v2.50h-2.50zM294.04,312.15h2.50v2.50h-2.50zM246.67,355.24h2.50v2.50h-2.50zM208.31,388.59h2.50v2.50h-2.50zM180.00,412.07h2.50v2.50h-2.50zM376.80,233.29h2.50v2.50h-2.50zM320.43,287.46h2.50v2.50h-2.50z" fill="#000000" opacity="1.000"><title></title></path>
</g>
<text class="label" x="326.0" y="466.0" text-anchor="middle">H1(m)</text>
<text class="label" transform="translate(110.0,258.0) rotate(-90)" text-anchor="middle">H1(m+1)</text>
</g>
<g id="panel-2">
<defs>
<clipPath id="clip-panel-2"><rect x="764.0" y="96.0" width="324.0" height="324.0"/></clipPath>
</defs>
<text class="panel-title" x="926.0" y="73.0" text-anchor="middle">(b) Gamma=0.3, chaotic</text>
<rect x="764.0" y="96.0" width="324.0" height="324.0" fill="#fff"/>
<line class="axis" x1="764.0" y1="420.0" x2="764.0" y2="425.0"/>
<text class="tick" x="764.0" y="440.0" text-anchor="middle">0</text>
<line class="axis" x1="872.0" y1="420.0" x2="872.0" y2="425.0"/>
<text class="tick" x="872.0" y="440.0" text-anchor="middle">0.5</text>
<line class="axis" x1="980.0" y1="420.0" x2="980.0" y2="425.0"/>
<text class="tick" x="980.0" y="440.0" text-anchor="middle">1</text>
<line class="axis" x1="1088.0" y1="420.0" x2="1088.0" y2="425.0"/>
<text class="tick" x="1088.0" y="440.0" text-anchor="middle">1.5</text>
<line class="axis" x1="759.0" y1="420.0" x2="764.0" y2="420.0"/>
<text class="tick" x="755.0" y="424.0" text-anchor="end">0</text>
<line class="axis" x1="759.0" y1="312.0" x2="764.0" y2="312.0"/>
<text class="tick" x="755.0" y="316.0" text-anchor="end">0.5</text>
<line class="axis" x1="759.0" y1="204.0" x2="764.0" y2="204.0"/>
<text class="tick" x="755.0" y="208.0" text-anchor="end">1</text>
<line class="axis" x1="759.0" y1="96.0" x2="764.0" y2="96.0"/>
<text class="tick" x="755.0" y="100.0" text-anchor="end">1.5</text>
<rect class="axis" x="764.0" y="96.0" width="324.0" height="324.0" fill="none"/>
<g clip-path="url(#clip-panel-2)">
<polyline points="764.00,420.00 1088.00,96.00" fill="none" stroke="#777777" stroke-width="1.10" stroke-linejoin="round" stroke-linecap="round"><title></title></polyline>
<path d="M962.85,227.86h2.50v2.50h-2.50zM942.99,250.84h2.50v2.50h-2.50zM916.45,281.32h2.50v2.50h-2.50zM881.67,320.67h2.50v2.50h-2.50zM837.66,369.16h2.50v2.50h-2.50zM785.30,206.70h2.50v2.50h-2.50zM965.77,224.44h2.50v2.50h-2.50zM946.95,246.26h2.50v2.50h-2.50zM921.72,275.30h2.50v2.50h-2.50zM888.50,313.00h2.50v2.50h-2.50zM846.14,359.94h2.50v2.50h-2.50zM795.06,414.23h2.50v2.50h-2.50zM977.87,233.60h2.50v2.50h-2.50zM936.18,258.69h2.50v2.50h-2.50zM907.44,291.59h2.50v2.50h-2.50zM870.08,333.59h2.50v2.50h-2.50zM823.48,384.39h2.50v2.50h-2.50zM769.39,204.03h2.50v2.50h-2.50zM949.97,242.91h2.50v2.50h-2.50zM925.59,270.87h2.50v2.50h-2.50zM893.53,307.34h2.50v2.50h-2.50zM852.45,353.06h2.50v2.50h-2.50zM802.42,406.60h2.50v2.50h-2.50zM976.49,226.11h2.50v2.50h-2.50zM944.92,248.61h2.50v2.50h-2.50zM919.02,278.39h2.50v2.50h-2.50zM884.99,316.95h2.50v2.50h-2.50zM841.77,364.70h2.50v2.50h-2.50zM790.01,207.39h2.50v2.50h-2.50zM970.53,218.86h2.50v2.50h-2.50zM953.44,238.75h2.50v2.50h-2.50zM930.39,265.36h2.50v2.50h-2.50zM899.82,300.24h2.50v2.50h-2.50zM860.37,344.34h2.50v2.50h-2.50zM811.80,396.77h2.50v2.50h-2.50zM974.89,216.31h2.50v2.50h-2.50zM956.39,235.32h2.50v2.50h-2.50zM934.34,260.81h2.50v2.50h-2.50zM905.02,294.34h2.50v2.50h-2.50zM866.98,337.03h2.50v2.50h-2.50zM819.73,388.39h2.50v2.50h-2.50zM765.27,203.25h2.50v2.50h-2.50zM945.95,247.59h2.50v2.50h-2.50zM920.19,277.05h2.50v2.50h-2.50zM886.51,315.24h2.50v2.50h-2.50zM843.67,362.64h2.50v2.50h-2.50zM792.19,417.18h2.50v2.50h-2.50zM978.44,236.47h2.50v2.50h-2.50zM932.84,262.54h2.50v2.50h-2.50zM903.04,296.58h2.50v2.50h-2.50zM864.47,339.82h2.50v2.50h-2.50zM816.70,391.60h2.50v2.50h-2.50zM974.12,211.08h2.50v2.50h-2.50zM962.51,228.21h2.50v2.50h-2.50zM942.58,251.31h2.50v2.50h-2.50zM915.91,281.95h2.50v2.50h-2.50zM880.96,321.46h2.50v2.50h-2.50zM836.79,370.10h2.50v2.50h-2.50zM784.31,206.55h2.50v2.50h-2.50zM964.77,225.60h2.50v2.50h-2.50zM945.60,247.82h2.50v2.50h-2.50zM919.92,277.36h2.50v2.50h-2.50zM886.17,315.63h2.50v2.50h-2.50zM843.23,363.11h2.50v2.50h-2.50zM791.69,417.70h2.50v2.50h-2.50zM978.54,236.97h2.50v2.50h-2.50zM932.26,263.21h2.50v2.50h-2.50zM902.28,297.45h2.50v2.50h-2.50zM863.50,340.89h2.50v2.50h-2.50zM815.53,392.83h2.50v2.50h-2.50zM974.30,212.33h2.50v2.50h-2.50zM961.05,229.91h2.50v2.50h-2.50zM940.61,253.59h2.50v2.50h-2.50zM913.29,284.93h2.50v2.50h-2.50zM877.59,325.23h2.50v2.50h-2.50zM832.64,374.58h2.50v2.50h-2.50zM779.60,205.80h2.50v2.50h-2.50zM960.06,231.12h2.50v2.50h-2.50zM939.21,255.20h2.50v2.50h-2.50zM911.44,287.04h2.50v2.50h-2.50zM875.21,327.89h2.50v2.50h-2.50zM829.72,377.71h2.50v2.50h-2.50zM776.33,205.26h2.50v2.50h-2.50zM956.81,234.92h2.50v2.50h-2.50zM934.80,260.28h2.50v2.50h-2.50zM905.63,293.65h2.50v2.50h-2.50zM867.76,336.17h2.50v2.50h-2.50zM820.67,387.39h2.50v2.50h-2.50zM766.29,203.44h2.50v2.50h-2.50zM946.95,246.42h2.50v2.50h-2.50zM921.53,275.52h2.50v2.50h-2.50zM888.25,313.28h2.50v2.50h-2.50zM845.83,360.28h2.50v2.50h-2.50zM794.70,414.60h2.50v2.50h-2.50zM977.94,233.96h2.50v2.50h-2.50zM935.76,259.18h2.50v2.50h-2.50zM906.89,292.22h2.50v2.50h-2.50zM869.37,334.38h2.50v2.50h-2.50zM822.62,385.31h2.50v2.50h-2.50zM768.44,203.85h2.50v2.50h-2.50zM949.04,243.99h2.50v2.50h-2.50zM924.34,272.30h2.50v2.50h-2.50zM891.91,309.17h2.50v2.50h-2.50zM850.40,355.29h2.50v2.50h-2.50zM800.02,409.09h2.50v2.50h-2.50zM976.92,228.57h2.50v2.50h-2.50zM942.06,251.92h2.50v2.50h-2.50zM915.21,282.74h2.50v2.50h-2.50zM880.07,322.47h2.50v2.50h-2.50zM835.68,371.29h2.50v2.50h-2.50zM783.05,206.35h2.50v2.50h-2.50zM963.51,227.08h2.50v2.50h-2.50zM943.88,249.81h2.50v2.50h-2.50zM917.64,279.97h2.50v2.50h-2.50zM883.21,318.95h2.50v2.50h-2.50zM839.56,367.10h2.50v2.50h-2.50zM787.47,207.02h2.50v2.50h-2.50zM967.96,221.87h2.50v2.50h-2.50zM949.94,242.81h2.50v2.50h-2.50zM925.70,270.74h2.50v2.50h-2.50zM893.68,307.17h2.50v2.50h-2.50zM852.63,352.85h2.50v2.50h-2.50zM802.64,406.37h2.50v2.50h-2.50zM976.45,225.88h2.50v2.50h-2.50zM945.19,248.30h2.50v2.50h-2.50zM919.37,277.99h2.50v2.50h-2.50zM885.45,316.44h2.50v2.50h-2.50zM842.34,364.08h2.50v2.50h-2.50zM790.66,207.49h2.50v2.50h-2.50zM971.19,218.08h2.50v2.50h-2.50zM954.34,237.70h2.50v2.50h-2.50zM931.60,263.97h2.50v2.50h-2.50zM901.41,298.44h2.50v2.50h-2.50zM862.39,342.11h2.50v2.50h-2.50zM814.21,394.23h2.50v2.50h-2.50zM974.50,213.75h2.50v2.50h-2.50zM959.39,231.84h2.50v2.50h-2.50zM938.37,256.17h2.50v2.50h-2.50zM910.34,288.30h2.50v2.50h-2.50zM873.79,329.47h2.50v2.50h-2.50zM827.99,379.57h2.50v2.50h-2.50zM774.39,204.92h2.50v2.50h-2.50zM954.89,237.17h2.50v2.50h-2.50zM932.21,263.27h2.50v2.50h-2.50zM902.21,297.52h2.50v2.50h-2.50zM863.41,340.99h2.50v2.50h-2.50zM815.43,392.94h2.50v2.50h-2.50zM974.32,212.44h2.50v2.50h-2.50zM960.92,230.06h2.50v2.50h-2.50zM940.44,253.79h2.50v2.50h-2.50zM913.07,285.19h2.50v2.50h-2.50zM877.30,325.56h2.50v2.50h-2.50zM832.28,374.96h2.50v2.50h-2.50zM779.20,205.74h2.50v2.50h-2.50zM959.66,231.58h2.50v2.50h-2.50zM938.67,255.83h2.50v2.50h-2.50zM910.73,287.85h2.50v2.50h-2.50zM874.29,328.91h2.50v2.50h-2.50zM828.60,378.91h2.50v2.50h-2.50zM775.08,205.04h2.50v2.50h-2.50zM955.57,236.37h2.50v2.50h-2.50zM933.13,262.21h2.50v2.50h-2.50zM903.42,296.16h2.50v2.50h-2.50zM864.95,339.29h2.50v2.50h-2.50zM817.28,390.99h2.50v2.50h-2.50zM974.04,210.46h2.50v2.50h-2.50zM963.24,227.36h2.50v2.50h-2.50zM943.56,250.18h2.50v2.50h-2.50zM917.21,280.45h2.50v2.50h-2.50zM882.65,319.57h2.50v2.50h-2.50zM838.88,367.84h2.50v2.50h-2.50zM786.69,206.91h2.50v2.50h-2.50zM967.17,222.80h2.50v2.50h-2.50zM948.86,244.05h2.50v2.50h-2.50zM924.27,272.38h2.50v2.50h-2.50zM891.81,309.28h2.50v2.50h-2.50zM850.29,355.42h2.50v2.50h-2.50zM799.88,409.23h2.50v2.50h-2.50zM976.95,228.71h2.50v2.50h-2.50zM941.89,252.11h2.50v2.50h-2.50zM914.99,282.99h2.50v2.50h-2.50zM879.78,322.78h2.50v2.50h-2.50zM835.33,371.67h2.50v2.50h-2.50zM782.65,206.29h2.50v2.50h-2.50zM963.11,227.55h2.50v2.50h-2.50zM943.34,250.43h2.50v2.50h-2.50zM916.92,280.79h2.50v2.50h-2.50zM882.28,319.99h2.50v2.50h-2.50zM838.41,368.34h2.50v2.50h-2.50zM786.16,206.83h2.50v2.50h-2.50zM966.63,223.43h2.50v2.50h-2.50zM948.13,244.90h2.50v2.50h-2.50zM923.29,273.50h2.50v2.50h-2.50zM890.54,310.71h2.50v2.50h-2.50zM848.69,357.16h2.50v2.50h-2.50zM798.02,411.16h2.50v2.50h-2.50zM977.30,230.60h2.50v2.50h-2.50zM939.68,254.66h2.50v2.50h-2.50zM912.06,286.33h2.50v2.50h-2.50zM876.01,327.00h2.50v2.50h-2.50zM830.70,376.66h2.50v2.50h-2.50zM777.42,205.44h2.50v2.50h-2.50zM957.89,233.65h2.50v2.50h-2.50zM936.28,258.59h2.50v2.50h-2.50zM907.57,291.45h2.50v2.50h-2.50zM870.24,333.42h2.50v2.50h-2.50zM823.67,384.19h2.50v2.50h-2.50zM769.60,204.07h2.50v2.50h-2.50zM950.17,242.67h2.50v2.50h-2.50zM925.86,270.56h2.50v2.50h-2.50zM893.89,306.93h2.50v2.50h-2.50zM852.90,352.56h2.50v2.50h-2.50zM802.95,406.05h2.50v2.50h-2.50zM976.39,225.56h2.50v2.50h-2.50zM945.56,247.87h2.50v2.50h-2.50zM919.87,277.42h2.50v2.50h-2.50zM886.10,315.71h2.50v2.50h-2.50zM843.15,363.21h2.50v2.50h-2.50zM791.59,417.80h2.50v2.50h-2.50zM978.56,237.07h2.50v2.50h-2.50zM932.15,263.34h2.50v2.50h-2.50zM902.13,297.62h2.50v2.50h-2.50zM863.30,341.10h2.50v2.50h-2.50zM815.31,393.07h2.50v2.50h-2.50zM974.34,212.58h2.50v2.50h-2.50zM960.76,230.25h2.50v2.50h-2.50zM940.22,254.04h2.50v2.50h-2.50zM912.78,285.52h2.50v2.50h-2.50zM876.93,325.97h2.50v2.50h-2.50zM831.82,375.45h2.50v2.50h-2.50zM778.69,205.65h2.50v2.50h-2.50zM959.15,232.18h2.50v2.50h-2.50zM937.98,256.63h2.50v2.50h-2.50zM909.81,288.90h2.50v2.50h-2.50zM873.11,330.22h2.50v2.50h-2.50zM827.16,380.45h2.50v2.50h-2.50zM773.47,204.76h2.50v2.50h-2.50zM953.98,238.22h2.50v2.50h-2.50zM930.99,264.67h2.50v2.50h-2.50zM900.61,299.34h2.50v2.50h-2.50zM861.38,343.23h2.50v2.50h-2.50zM813.00,395.51h2.50v2.50h-2.50zM974.69,215.03h2.50v2.50h-2.50zM957.88,233.59h2.50v2.50h-2.50zM936.35,258.51h2.50v2.50h-2.50zM907.66,291.34h2.50v2.50h-2.50zM870.36,333.29h2.50v2.50h-2.50zM823.81,384.04h2.50v2.50h-2.50zM769.75,204.09h2.50v2.50h-2.50zM950.33,242.49h2.50v2.50h-2.50zM926.07,270.32h2.50v2.50h-2.50zM894.17,306.62h2.50v2.50h-2.50zM853.24,352.19h2.50v2.50h-2.50zM803.35,405.63h2.50v2.50h-2.50zM976.32,225.15h2.50v2.50h-2.50zM946.05,247.31h2.50v2.50h-2.50zM920.51,276.68h2.50v2.50h-2.50zM886.93,314.77h2.50v2.50h-2.50zM844.19,362.08h2.50v2.50h-2.50zM792.79,416.57h2.50v2.50h-2.50zM978.32,235.87h2.50v2.50h-2.50zM933.54,261.74h2.50v2.50h-2.50zM903.96,295.55h2.50v2.50h-2.50zM865.63,338.53h2.50v2.50h-2.50zM818.10,390.11h2.50v2.50h-2.50zM763.49,202.90h2.50v2.50h-2.50zM944.23,249.59h2.50v2.50h-2.50zM917.89,279.68h2.50v2.50h-2.50zM883.53,318.59h2.50v2.50h-2.50zM839.96,366.67h2.50v2.50h-2.50zM787.92,207.09h2.50v2.50h-2.50zM968.41,221.33h2.50v2.50h-2.50zM950.56,242.08h2.50v2.50h-2.50zM926.53,269.78h2.50v2.50h-2.50zM894.77,305.94h2.50v2.50h-2.50zM854.00,351.35h2.50v2.50h-2.50zM804.25,404.69h2.50v2.50h-2.50zM976.16,224.22h2.50v2.50h-2.50zM947.13,246.05h2.50v2.50h-2.50zM921.96,275.02h2.50v2.50h-2.50zM888.81,312.65h2.50v2.50h-2.50zM846.53,359.52h2.50v2.50h-2.50zM795.51,413.76h2.50v2.50h-2.50zM977.78,233.15h2.50v2.50h-2.50zM936.71,258.08h2.50v2.50h-2.50zM908.14,290.79h2.50v2.50h-2.50zM870.98,332.60h2.50v2.50h-2.50zM824.57,383.23h2.50v2.50h-2.50zM770.59,204.25h2.50v2.50h-2.50zM951.14,241.53h2.50v2.50h-2.50zM927.17,269.06h2.50v2.50h-2.50zM895.60,305.00h2.50v2.50h-2.50zM855.05,350.20h2.50v2.50h-2.50zM805.48,403.40h2.50v2.50h-2.50zM975.94,222.94h2.50v2.50h-2.50zM948.63,244.32h2.50v2.50h-2.50zM923.96,272.74h2.50v2.50h-2.50zM891.41,309.73h2.50v2.50h-2.50zM849.78,355.97h2.50v2.50h-2.50zM799.30,409.85h2.50v2.50h-2.50zM977.06,229.31h2.50v2.50h-2.50zM941.19,252.92h2.50v2.50h-2.50zM914.06,284.05h2.50v2.50h-2.50zM878.58,324.12h2.50v2.50h-2.50zM833.86,373.26h2.50v2.50h-2.50zM780.98,206.03h2.50v2.50h-2.50zM961.44,229.51h2.50v2.50h-2.50zM941.08,253.05h2.50v2.50h-2.50zM913.92,284.22h2.50v2.50h-2.50zM878.39,324.33h2.50v2.50h-2.50zM833.63,373.51h2.50v2.50h-2.50zM780.72,205.98h2.50v2.50h-2.50zM961.18,229.81h2.50v2.50h-2.50zM940.72,253.46h2.50v2.50h-2.50zM913.44,284.76h2.50v2.50h-2.50zM877.78,325.02h2.50v2.50h-2.50zM832.87,374.32h2.50v2.50h-2.50zM779.87,205.85h2.50v2.50h-2.50zM960.33,230.80h2.50v2.50h-2.50zM939.57,254.78h2.50v2.50h-2.50zM911.92,286.49h2.50v2.50h-2.50zM875.83,327.20h2.50v2.50h-2.50zM830.48,376.90h2.50v2.50h-2.50zM777.18,205.40h2.50v2.50h-2.50zM957.65,233.94h2.50v2.50h-2.50zM935.94,258.97h2.50v2.50h-2.50zM907.13,291.95h2.50v2.50h-2.50zM869.68,334.04h2.50v2.50h-2.50zM822.99,384.92h2.50v2.50h-2.50zM768.84,203.93h2.50v2.50h-2.50zM949.44,243.53h2.50v2.50h-2.50zM924.87,271.69h2.50v2.50h-2.50zM892.60,308.39h2.50v2.50h-2.50zM851.28,354.34h2.50v2.50h-2.50zM801.04,408.03h2.50v2.50h-2.50zM976.74,227.52h2.50v2.50h-2.50zM943.27,250.51h2.50v2.50h-2.50zM916.83,280.89h2.50v2.50h-2.50zM882.16,320.13h2.50v2.50h-2.50zM838.26,368.51h2.50v2.50h-2.50zM785.98,206.80h2.50v2.50h-2.50zM966.46,223.63h2.50v2.50h-2.50zM947.90,245.17h2.50v2.50h-2.50zM922.98,273.86h2.50v2.50h-2.50zM890.14,311.16h2.50v2.50h-2.50zM848.19,357.72h2.50v2.50h-2.50zM797.43,411.78h2.50v2.50h-2.50zM977.41,231.20h2.50v2.50h-2.50zM938.98,255.47h2.50v2.50h-2.50zM911.14,287.39h2.50v2.50h-2.50zM874.82,328.33h2.50v2.50h-2.50zM829.24,378.23h2.50v2.50h-2.50zM775.79,205.17h2.50v2.50h-2.50zM956.27,235.55h2.50v2.50h-2.50zM934.08,261.11h2.50v2.50h-2.50zM904.68,294.73h2.50v2.50h-2.50zM866.55,337.51h2.50v2.50h-2.50zM819.21,388.94h2.50v2.50h-2.50zM764.70,203.14h2.50v2.50h-2.50zM945.40,248.23h2.50v2.50h-2.50zM919.45,277.89h2.50v2.50h-2.50zM885.56,316.31h2.50v2.50h-2.50zM842.48,363.94h2.50v2.50h-2.50zM790.82,418.59h2.50v2.50h-2.50zM978.72,237.84h2.50v2.50h-2.50zM931.25,264.37h2.50v2.50h-2.50zM900.95,298.95h2.50v2.50h-2.50zM861.81,342.75h2.50v2.50h-2.50zM813.52,394.96h2.50v2.50h-2.50zM974.61,214.48h2.50v2.50h-2.50zM958.53,232.84h2.50v2.50h-2.50zM937.21,257.51h2.50v2.50h-2.50zM908.80,290.04h2.50v2.50h-2.50zM871.82,331.66h2.50v2.50h-2.50zM825.59,382.14h2.50v2.50h-2.50zM771.72,204.45h2.50v2.50h-2.50zM952.26,240.23h2.50v2.50h-2.50zM928.67,267.33h2.50v2.50h-2.50zM897.57,302.78h2.50v2.50h-2.50zM857.53,347.48h2.50v2.50h-2.50zM808.42,400.33h2.50v2.50h-2.50zM975.44,219.87h2.50v2.50h-2.50zM952.21,240.17h2.50v2.50h-2.50zM928.74,267.25h2.50v2.50h-2.50zM897.67,302.67h2.50v2.50h-2.50zM857.65,347.34h2.50v2.50h-2.50zM808.56,400.18h2.50v2.50h-2.50zM975.42,219.72h2.50v2.50h-2.50zM952.39,239.96h2.50v2.50h-2.50zM928.98,266.97h2.50v2.50h-2.50zM897.98,302.32h2.50v2.50h-2.50zM858.05,346.90h2.50v2.50h-2.50zM809.03,399.68h2.50v2.50h-2.50zM975.34,219.23h2.50v2.50h-2.50zM952.97,239.29h2.50v2.50h-2.50zM929.76,266.09h2.50v2.50h-2.50zM898.99,301.17h2.50v2.50h-2.50zM859.33,345.50h2.50v2.50h-2.50zM810.55,398.09h2.50v2.50h-2.50zM975.09,217.63h2.50v2.50h-2.50zM954.84,237.12h2.50v2.50h-2.50zM932.27,263.20h2.50v2.50h-2.50zM902.29,297.44h2.50v2.50h-2.50zM863.51,340.88h2.50v2.50h-2.50zM815.55,392.82h2.50v2.50h-2.50zM974.30,212.32h2.50v2.50h-2.50zM961.07,229.89h2.50v2.50h-2.50zM940.63,253.56h2.50v2.50h-2.50zM913.32,284.89h2.50v2.50h-2.50zM877.63,325.19h2.50v2.50h-2.50zM832.69,374.52h2.50v2.50h-2.50zM779.66,205.81h2.50v2.50h-2.50zM960.12,231.05h2.50v2.50h-2.50zM939.29,255.11h2.50v2.50h-2.50zM911.55,286.92h2.50v2.50h-2.50zM875.35,327.74h2.50v2.50h-2.50zM829.89,377.53h2.50v2.50h-2.50zM776.52,205.29h2.50v2.50h-2.50zM956.99,234.71h2.50v2.50h-2.50zM935.05,259.99h2.50v2.50h-2.50zM905.96,293.28h2.50v2.50h-2.50zM868.18,335.70h2.50v2.50h-2.50zM821.18,386.85h2.50v2.50h-2.50zM766.85,203.55h2.50v2.50h-2.50zM947.49,245.79h2.50v2.50h-2.50zM922.26,274.68h2.50v2.50h-2.50zM889.21,312.21h2.50v2.50h-2.50zM847.02,358.99h2.50v2.50h-2.50zM796.08,413.18h2.50v2.50h-2.50zM977.67,232.57h2.50v2.50h-2.50zM937.38,257.31h2.50v2.50h-2.50zM909.03,289.79h2.50v2.50h-2.50zM872.11,331.34h2.50v2.50h-2.50zM825.94,381.77h2.50v2.50h-2.50zM772.11,204.52h2.50v2.50h-2.50zM952.64,239.79h2.50v2.50h-2.50zM929.18,266.75h2.50v2.50h-2.50zM898.24,302.02h2.50v2.50h-2.50zM858.38,346.54h2.50v2.50h-2.50zM809.42,399.27h2.50v2.50h-2.50zM975.27,218.82h2.50v2.50h-2.50zM953.45,238.74h2.50v2.50h-2.50zM930.40,265.35h2.50v2.50h-2.50zM899.83,300.22h2.50v2.50h-2.50zM860.40,344.32h2.50v2.50h-2.50zM811.83,396.75h2.50v2.50h-2.50zM974.88,216.28h2.50v2.50h-2.50zM956.42,235.29h2.50v2.50h-2.50zM934.38,260.76h2.50v2.50h-2.50zM905.07,294.28h2.50v2.50h-2.50zM867.05,336.96h2.50v2.50h-2.50zM819.81,388.30h2.50v2.50h-2.50zM765.36,203.26h2.50v2.50h-2.50zM946.04,247.48h2.50v2.50h-2.50zM920.31,276.91h2.50v2.50h-2.50zM886.67,315.06h2.50v2.50h-2.50zM843.86,362.43h2.50v2.50h-2.50zM792.42,416.95h2.50v2.50h-2.50zM978.39,236.24h2.50v2.50h-2.50zM933.10,262.24h2.50v2.50h-2.50zM903.39,296.19h2.50v2.50h-2.50zM864.91,339.33h2.50v2.50h-2.50zM817.23,391.04h2.50v2.50h-2.50zM974.04,210.51h2.50v2.50h-2.50zM963.18,227.43h2.50v2.50h-2.50zM943.48,250.27h2.50v2.50h-2.50zM917.10,280.58h2.50v2.50h-2.50zM882.51,319.73h2.50v2.50h-2.50zM838.70,368.03h2.50v2.50h-2.50zM786.49,206.88h2.50v2.50h-2.50zM966.96,223.03h2.50v2.50h-2.50zM948.59,244.37h2.50v2.50h-2.50zM923.90,272.81h2.50v2.50h-2.50zM891.33,309.82h2.50v2.50h-2.50zM849.68,356.08h2.50v2.50h-2.50zM799.18,409.97h2.50v2.50h-2.50zM977.08,229.43h2.50v2.50h-2.50zM941.05,253.08h2.50v2.50h-2.50zM913.88,284.26h2.50v2.50h-2.50zM878.35,324.39h2.50v2.50h-2.50zM833.57,373.57h2.50v2.50h-2.50zM780.66,205.97h2.50v2.50h-2.50zM961.11,229.89h2.50v2.50h-2.50zM940.63,253.56h2.50v2.50h-2.50zM913.33,284.89h2.50v2.50h-2.50zM877.64,325.18h2.50v2.50h-2.50zM832.70,374.51h2.50v2.50h-2.50zM779.67,205.82h2.50v2.50h-2.50zM960.13,231.04h2.50v2.50h-2.50zM939.30,255.10h2.50v2.50h-2.50zM911.56,286.90h2.50v2.50h-2.50zM875.37,327.71h2.50v2.50h-2.50zM829.91,377.51h2.50v2.50h-2.50zM776.54,205.30h2.50v2.50h-2.50zM957.02,234.67h2.50v2.50h-2.50zM935.09,259.95h2.50v2.50h-2.50zM906.01,293.22h2.50v2.50h-2.50zM868.25,335.63h2.50v2.50h-2.50zM821.25,386.76h2.50v2.50h-2.50zM766.94,203.57h2.50v2.50h-2.50zM947.58,245.69h2.50v2.50h-2.50z" fill="#000000" opacity="1.000"><title></title></path>
</g>
<text class="label" x="926.0" y="466.0" text-anchor="middle">H1(m)</text>
<text class="label" transform="translate(710.0,258.0) rotate(-90)" text-anchor="middle">H1(m+1)</text>
</g>
<g id="panel-3">
<defs>
<clipPath id="clip-panel-3"><rect x="164.0" y="526.0" width="324.0" height="324.0"/></clipPath>
</defs>
<text class="panel-title" x="326.0" y="503.0" text-anchor="middle">(c) Gamma=0.5, chaotic</text>
<rect x="164.0" y="526.0" width="324.0" height="324.0" fill="#fff"/>
<line class="axis" x1="164.0" y1="850.0" x2="164.0" y2="855.0"/>
<text class="tick" x="164.0" y="870.0" text-anchor="middle">0</text>
<line class="axis" x1="272.0" y1="850.0" x2="272.0" y2="855.0"/>
<text class="tick" x="272.0" y="870.0" text-anchor="middle">0.5</text>
<line class="axis" x1="380.0" y1="850.0" x2="380.0" y2="855.0"/>
<text class="tick" x="380.0" y="870.0" text-anchor="middle">1</text>
<line class="axis" x1="488.0" y1="850.0" x2="488.0" y2="855.0"/>
<text class="tick" x="488.0" y="870.0" text-anchor="middle">1.5</text>
<line class="axis" x1="159.0" y1="850.0" x2="164.0" y2="850.0"/>
<text class="tick" x="155.0" y="854.0" text-anchor="end">0</text>
<line class="axis" x1="159.0" y1="742.0" x2="164.0" y2="742.0"/>
<text class="tick" x="155.0" y="746.0" text-anchor="end">0.5</text>
<line class="axis" x1="159.0" y1="634.0" x2="164.0" y2="634.0"/>
<text class="tick" x="155.0" y="638.0" text-anchor="end">1</text>
<line class="axis" x1="159.0" y1="526.0" x2="164.0" y2="526.0"/>
<text class="tick" x="155.0" y="530.0" text-anchor="end">1.5</text>
<rect class="axis" x="164.0" y="526.0" width="324.0" height="324.0" fill="none"/>
<g clip-path="url(#clip-panel-3)">
<polyline points="164.00,850.00 488.00,526.00" fill="none" stroke="#777777" stroke-width="1.10" stroke-linejoin="round" stroke-linecap="round"><title></title></polyline>
<path d="M383.43,816.25h2.50v2.50h-2.50zM379.89,635.20h2.50v2.50h-2.50zM179.39,632.44h2.50v2.50h-2.50zM358.21,640.40h2.50v2.50h-2.50zM171.44,632.66h2.50v2.50h-2.50zM349.43,654.26h2.50v2.50h-2.50zM372.09,837.98h2.50v2.50h-2.50zM378.88,659.78h2.50v2.50h-2.50zM360.85,633.89h2.50v2.50h-2.50zM184.09,632.25h2.50v2.50h-2.50zM363.53,631.99h2.50v2.50h-2.50zM187.59,632.07h2.50v2.50h-2.50zM367.50,625.71h2.50v2.50h-2.50zM199.62,631.30h2.50v2.50h-2.50zM381.39,822.03h2.50v2.50h-2.50zM379.53,641.88h2.50v2.50h-2.50zM166.12,632.74h2.50v2.50h-2.50zM343.59,663.45h2.50v2.50h-2.50zM358.06,638.00h2.50v2.50h-2.50zM176.23,632.55h2.50v2.50h-2.50zM354.72,645.90h2.50v2.50h-2.50zM384.87,813.49h2.50v2.50h-2.50zM380.08,632.00h2.50v2.50h-2.50zM185.73,632.17h2.50v2.50h-2.50zM365.36,629.09h2.50v2.50h-2.50zM193.15,631.75h2.50v2.50h-2.50zM373.87,836.94h2.50v2.50h-2.50zM378.91,658.67h2.50v2.50h-2.50zM362.62,631.19h2.50v2.50h-2.50zM189.27,631.98h2.50v2.50h-2.50zM369.42,845.77h2.50v2.50h-2.50zM378.76,668.33h2.50v2.50h-2.50zM347.38,654.46h2.50v2.50h-2.50zM371.95,838.25h2.50v2.50h-2.50zM378.87,660.08h2.50v2.50h-2.50zM360.38,634.61h2.50v2.50h-2.50zM182.72,632.31h2.50v2.50h-2.50zM361.98,634.44h2.50v2.50h-2.50zM182.89,632.30h2.50v2.50h-2.50zM362.17,634.14h2.50v2.50h-2.50zM183.46,632.28h2.50v2.50h-2.50zM362.81,633.12h2.50v2.50h-2.50zM185.41,632.19h2.50v2.50h-2.50zM365.02,629.63h2.50v2.50h-2.50zM192.11,631.82h2.50v2.50h-2.50zM372.68,839.30h2.50v2.50h-2.50zM378.85,661.27h2.50v2.50h-2.50zM358.51,637.47h2.50v2.50h-2.50zM177.23,632.52h2.50v2.50h-2.50zM355.83,644.15h2.50v2.50h-2.50zM164.23,632.75h2.50v2.50h-2.50zM341.58,666.62h2.50v2.50h-2.50zM353.24,645.35h2.50v2.50h-2.50zM385.86,811.58h2.50v2.50h-2.50zM380.22,629.77h2.50v2.50h-2.50zM190.15,631.93h2.50v2.50h-2.50zM370.40,843.83h2.50v2.50h-2.50zM378.78,666.23h2.50v2.50h-2.50zM350.69,649.40h2.50v2.50h-2.50zM379.67,823.45h2.50v2.50h-2.50zM379.45,643.47h2.50v2.50h-2.50zM162.95,632.75h2.50v2.50h-2.50zM340.18,668.83h2.50v2.50h-2.50zM349.87,650.49h2.50v2.50h-2.50zM378.02,826.61h2.50v2.50h-2.50zM379.29,647.07h2.50v2.50h-2.50zM380.93,821.19h2.50v2.50h-2.50zM379.58,640.89h2.50v2.50h-2.50zM168.08,632.72h2.50v2.50h-2.50zM345.72,660.09h2.50v2.50h-2.50zM363.18,630.18h2.50v2.50h-2.50zM191.23,631.87h2.50v2.50h-2.50zM371.66,841.33h2.50v2.50h-2.50zM378.81,663.49h2.50v2.50h-2.50zM355.00,642.83h2.50v2.50h-2.50zM166.96,632.73h2.50v2.50h-2.50zM344.54,661.97h2.50v2.50h-2.50zM360.33,634.54h2.50v2.50h-2.50zM182.86,632.30h2.50v2.50h-2.50zM362.14,634.19h2.50v2.50h-2.50zM183.36,632.28h2.50v2.50h-2.50zM362.70,633.30h2.50v2.50h-2.50zM185.06,632.20h2.50v2.50h-2.50zM364.63,630.26h2.50v2.50h-2.50zM190.90,631.89h2.50v2.50h-2.50zM371.29,842.06h2.50v2.50h-2.50zM378.80,664.30h2.50v2.50h-2.50zM353.74,644.76h2.50v2.50h-2.50zM163.24,632.75h2.50v2.50h-2.50zM340.52,668.29h2.50v2.50h-2.50zM350.70,649.22h2.50v2.50h-2.50zM379.95,822.90h2.50v2.50h-2.50zM379.48,642.85h2.50v2.50h-2.50zM164.19,632.75h2.50v2.50h-2.50zM341.51,666.73h2.50v2.50h-2.50zM353.07,645.61h2.50v2.50h-2.50zM385.47,812.34h2.50v2.50h-2.50zM380.17,630.65h2.50v2.50h-2.50zM188.39,632.03h2.50v2.50h-2.50zM368.40,847.81h2.50v2.50h-2.50zM378.75,670.54h2.50v2.50h-2.50zM343.91,659.74h2.50v2.50h-2.50zM363.89,629.08h2.50v2.50h-2.50zM193.32,631.74h2.50v2.50h-2.50zM374.07,836.55h2.50v2.50h-2.50zM378.92,658.23h2.50v2.50h-2.50zM363.31,630.13h2.50v2.50h-2.50zM191.30,631.87h2.50v2.50h-2.50zM371.74,841.16h2.50v2.50h-2.50zM378.82,663.31h2.50v2.50h-2.50zM355.29,642.39h2.50v2.50h-2.50zM167.79,632.72h2.50v2.50h-2.50zM345.44,660.54h2.50v2.50h-2.50zM362.50,631.22h2.50v2.50h-2.50zM189.22,631.99h2.50v2.50h-2.50zM369.36,845.90h2.50v2.50h-2.50zM378.76,668.47h2.50v2.50h-2.50zM347.16,654.79h2.50v2.50h-2.50zM371.43,839.24h2.50v2.50h-2.50zM378.85,661.16h2.50v2.50h-2.50zM358.67,637.22h2.50v2.50h-2.50zM177.71,632.50h2.50v2.50h-2.50zM356.37,643.31h2.50v2.50h-2.50zM165.85,632.74h2.50v2.50h-2.50zM343.34,663.86h2.50v2.50h-2.50zM357.45,638.94h2.50v2.50h-2.50zM174.43,632.60h2.50v2.50h-2.50zM352.73,649.05h2.50v2.50h-2.50zM380.05,822.73h2.50v2.50h-2.50zM379.49,642.65h2.50v2.50h-2.50zM164.59,632.75h2.50v2.50h-2.50zM341.94,666.06h2.50v2.50h-2.50zM354.10,644.05h2.50v2.50h-2.50zM164.62,632.75h2.50v2.50h-2.50zM342.00,665.96h2.50v2.50h-2.50zM354.25,643.82h2.50v2.50h-2.50zM165.06,632.74h2.50v2.50h-2.50zM342.48,665.21h2.50v2.50h-2.50zM355.39,642.07h2.50v2.50h-2.50zM168.42,632.71h2.50v2.50h-2.50zM346.12,659.47h2.50v2.50h-2.50zM364.14,628.71h2.50v2.50h-2.50zM194.02,631.69h2.50v2.50h-2.50zM374.88,834.93h2.50v2.50h-2.50zM378.96,656.43h2.50v2.50h-2.50zM366.14,625.80h2.50v2.50h-2.50zM199.60,631.30h2.50v2.50h-2.50zM381.36,822.08h2.50v2.50h-2.50zM379.53,641.93h2.50v2.50h-2.50zM166.01,632.74h2.50v2.50h-2.50zM343.48,663.63h2.50v2.50h-2.50zM357.79,638.42h2.50v2.50h-2.50zM175.42,632.57h2.50v2.50h-2.50zM353.82,647.32h2.50v2.50h-2.50zM382.70,817.65h2.50v2.50h-2.50zM379.79,636.82h2.50v2.50h-2.50zM176.17,632.55h2.50v2.50h-2.50zM354.62,646.07h2.50v2.50h-2.50zM384.62,813.97h2.50v2.50h-2.50zM380.05,632.55h2.50v2.50h-2.50zM184.63,632.22h2.50v2.50h-2.50zM364.12,631.06h2.50v2.50h-2.50zM189.36,631.98h2.50v2.50h-2.50zM369.52,845.57h2.50v2.50h-2.50zM378.76,668.11h2.50v2.50h-2.50zM347.72,653.93h2.50v2.50h-2.50zM372.74,836.72h2.50v2.50h-2.50zM378.91,658.39h2.50v2.50h-2.50zM363.05,630.53h2.50v2.50h-2.50zM190.53,631.91h2.50v2.50h-2.50zM370.87,842.91h2.50v2.50h-2.50zM378.79,665.22h2.50v2.50h-2.50zM352.29,646.97h2.50v2.50h-2.50zM383.38,816.34h2.50v2.50h-2.50zM379.88,635.31h2.50v2.50h-2.50zM179.17,632.45h2.50v2.50h-2.50zM357.97,640.78h2.50v2.50h-2.50zM170.70,632.68h2.50v2.50h-2.50zM348.62,655.53h2.50v2.50h-2.50zM370.14,841.72h2.50v2.50h-2.50zM378.81,663.89h2.50v2.50h-2.50zM354.37,643.79h2.50v2.50h-2.50zM165.11,632.74h2.50v2.50h-2.50zM342.53,665.12h2.50v2.50h-2.50zM355.52,641.88h2.50v2.50h-2.50zM168.79,632.71h2.50v2.50h-2.50zM346.53,658.83h2.50v2.50h-2.50zM365.12,627.22h2.50v2.50h-2.50zM196.89,631.50h2.50v2.50h-2.50zM378.20,828.35h2.50v2.50h-2.50zM379.21,649.06h2.50v2.50h-2.50zM377.79,827.21h2.50v2.50h-2.50zM379.26,647.75h2.50v2.50h-2.50zM379.85,823.26h2.50v2.50h-2.50zM379.46,643.25h2.50v2.50h-2.50zM163.39,632.75h2.50v2.50h-2.50zM340.64,668.10h2.50v2.50h-2.50zM350.99,648.78h2.50v2.50h-2.50zM380.63,821.61h2.50v2.50h-2.50zM379.55,641.37h2.50v2.50h-2.50zM167.13,632.73h2.50v2.50h-2.50zM344.69,661.73h2.50v2.50h-2.50zM360.69,633.98h2.50v2.50h-2.50zM183.93,632.26h2.50v2.50h-2.50zM363.34,632.28h2.50v2.50h-2.50zM187.02,632.10h2.50v2.50h-2.50zM366.85,626.74h2.50v2.50h-2.50zM197.64,631.45h2.50v2.50h-2.50zM379.08,826.61h2.50v2.50h-2.50zM379.29,647.09h2.50v2.50h-2.50zM380.90,821.25h2.50v2.50h-2.50zM379.57,640.96h2.50v2.50h-2.50zM167.95,632.72h2.50v2.50h-2.50zM345.58,660.32h2.50v2.50h-2.50zM362.84,630.70h2.50v2.50h-2.50zM190.21,631.93h2.50v2.50h-2.50zM370.50,843.64h2.50v2.50h-2.50zM378.78,666.01h2.50v2.50h-2.50zM351.03,648.89h2.50v2.50h-2.50zM380.46,821.94h2.50v2.50h-2.50zM379.53,641.75h2.50v2.50h-2.50zM166.38,632.73h2.50v2.50h-2.50zM343.88,663.01h2.50v2.50h-2.50zM358.74,636.96h2.50v2.50h-2.50zM178.23,632.48h2.50v2.50h-2.50zM356.94,642.40h2.50v2.50h-2.50zM167.59,632.72h2.50v2.50h-2.50zM345.22,660.88h2.50v2.50h-2.50zM361.98,632.02h2.50v2.50h-2.50zM187.70,632.07h2.50v2.50h-2.50zM367.63,625.51h2.50v2.50h-2.50zM200.01,631.27h2.50v2.50h-2.50zM381.84,821.14h2.50v2.50h-2.50zM379.58,640.86h2.50v2.50h-2.50zM168.15,632.72h2.50v2.50h-2.50zM345.80,659.98h2.50v2.50h-2.50zM363.36,629.90h2.50v2.50h-2.50zM191.75,631.84h2.50v2.50h-2.50zM372.26,840.13h2.50v2.50h-2.50zM378.83,662.18h2.50v2.50h-2.50zM357.07,639.67h2.50v2.50h-2.50zM173.01,632.63h2.50v2.50h-2.50zM351.15,651.53h2.50v2.50h-2.50zM376.26,830.00h2.50v2.50h-2.50zM379.14,650.89h2.50v2.50h-2.50zM374.89,832.78h2.50v2.50h-2.50zM379.03,654.01h2.50v2.50h-2.50zM369.97,842.23h2.50v2.50h-2.50zM378.80,664.45h2.50v2.50h-2.50zM353.49,645.14h2.50v2.50h-2.50zM386.18,810.97h2.50v2.50h-2.50zM380.27,629.06h2.50v2.50h-2.50zM191.55,631.85h2.50v2.50h-2.50zM372.02,840.62h2.50v2.50h-2.50zM378.83,662.72h2.50v2.50h-2.50zM356.23,640.96h2.50v2.50h-2.50zM170.54,632.68h2.50v2.50h-2.50zM348.44,655.81h2.50v2.50h-2.50zM369.72,842.53h2.50v2.50h-2.50zM378.79,664.77h2.50v2.50h-2.50zM352.98,645.91h2.50v2.50h-2.50zM385.01,813.22h2.50v2.50h-2.50zM380.10,631.68h2.50v2.50h-2.50zM186.36,632.14h2.50v2.50h-2.50zM366.07,627.97h2.50v2.50h-2.50zM195.30,631.61h2.50v2.50h-2.50zM376.35,832.01h2.50v2.50h-2.50zM379.06,653.18h2.50v2.50h-2.50zM371.28,839.72h2.50v2.50h-2.50zM378.84,661.70h2.50v2.50h-2.50zM357.84,638.50h2.50v2.50h-2.50zM175.26,632.57h2.50v2.50h-2.50zM353.64,647.61h2.50v2.50h-2.50zM382.26,818.50h2.50v2.50h-2.50zM379.74,637.79h2.50v2.50h-2.50zM174.24,632.60h2.50v2.50h-2.50zM352.48,649.44h2.50v2.50h-2.50zM379.45,823.87h2.50v2.50h-2.50zM379.43,643.95h2.50v2.50h-2.50zM385.86,811.74h2.50v2.50h-2.50zM380.21,629.95h2.50v2.50h-2.50zM189.78,631.95h2.50v2.50h-2.50zM369.99,844.65h2.50v2.50h-2.50zM378.77,667.12h2.50v2.50h-2.50zM349.29,651.55h2.50v2.50h-2.50zM376.39,829.73h2.50v2.50h-2.50zM379.15,650.59h2.50v2.50h-2.50zM375.37,831.86h2.50v2.50h-2.50zM379.07,652.98h2.50v2.50h-2.50zM371.59,839.11h2.50v2.50h-2.50zM378.86,661.03h2.50v2.50h-2.50zM358.88,636.91h2.50v2.50h-2.50zM178.31,632.48h2.50v2.50h-2.50zM357.04,642.25h2.50v2.50h-2.50zM167.89,632.72h2.50v2.50h-2.50zM345.55,660.37h2.50v2.50h-2.50zM362.76,630.83h2.50v2.50h-2.50zM189.98,631.94h2.50v2.50h-2.50zM370.23,844.17h2.50v2.50h-2.50zM378.77,666.59h2.50v2.50h-2.50zM350.12,650.27h2.50v2.50h-2.50zM378.34,826.00h2.50v2.50h-2.50zM379.32,646.37h2.50v2.50h-2.50zM382.04,819.07h2.50v2.50h-2.50zM379.70,638.46h2.50v2.50h-2.50zM172.92,632.63h2.50v2.50h-2.50zM351.03,651.74h2.50v2.50h-2.50zM375.95,830.59h2.50v2.50h-2.50zM379.12,651.55h2.50v2.50h-2.50zM373.85,834.79h2.50v2.50h-2.50zM378.97,656.25h2.50v2.50h-2.50zM366.43,625.35h2.50v2.50h-2.50zM200.46,631.24h2.50v2.50h-2.50zM382.37,820.09h2.50v2.50h-2.50zM379.64,639.65h2.50v2.50h-2.50zM170.55,632.68h2.50v2.50h-2.50zM348.42,655.84h2.50v2.50h-2.50zM369.68,842.62h2.50v2.50h-2.50zM378.79,664.87h2.50v2.50h-2.50zM352.83,646.15h2.50v2.50h-2.50zM384.64,813.92h2.50v2.50h-2.50zM380.05,632.49h2.50v2.50h-2.50zM184.75,632.22h2.50v2.50h-2.50zM364.25,630.85h2.50v2.50h-2.50zM189.77,631.95h2.50v2.50h-2.50zM369.99,844.66h2.50v2.50h-2.50zM378.77,667.12h2.50v2.50h-2.50zM349.29,651.55h2.50v2.50h-2.50zM376.39,829.74h2.50v2.50h-2.50zM379.15,650.60h2.50v2.50h-2.50zM375.35,831.89h2.50v2.50h-2.50zM379.07,653.02h2.50v2.50h-2.50zM371.53,839.23h2.50v2.50h-2.50zM378.85,661.17h2.50v2.50h-2.50zM358.67,637.22h2.50v2.50h-2.50zM177.71,632.50h2.50v2.50h-2.50zM356.36,643.31h2.50v2.50h-2.50zM165.84,632.74h2.50v2.50h-2.50zM343.32,663.88h2.50v2.50h-2.50zM357.41,639.00h2.50v2.50h-2.50zM174.31,632.60h2.50v2.50h-2.50zM352.59,649.27h2.50v2.50h-2.50zM379.72,823.36h2.50v2.50h-2.50zM379.45,643.37h2.50v2.50h-2.50zM163.16,632.75h2.50v2.50h-2.50zM340.40,668.47h2.50v2.50h-2.50zM350.42,649.66h2.50v2.50h-2.50zM379.29,824.18h2.50v2.50h-2.50zM379.41,644.31h2.50v2.50h-2.50zM385.30,812.81h2.50v2.50h-2.50zM380.13,631.20h2.50v2.50h-2.50zM187.31,632.09h2.50v2.50h-2.50zM367.16,626.25h2.50v2.50h-2.50zM198.59,631.38h2.50v2.50h-2.50zM380.18,824.42h2.50v2.50h-2.50zM379.40,644.61h2.50v2.50h-2.50zM384.83,813.72h2.50v2.50h-2.50zM380.06,632.26h2.50v2.50h-2.50zM185.21,632.19h2.50v2.50h-2.50zM364.78,630.02h2.50v2.50h-2.50zM191.36,631.86h2.50v2.50h-2.50zM371.82,841.01h2.50v2.50h-2.50zM378.82,663.15h2.50v2.50h-2.50zM355.55,642.00h2.50v2.50h-2.50zM168.55,632.71h2.50v2.50h-2.50zM346.26,659.25h2.50v2.50h-2.50zM364.48,628.20h2.50v2.50h-2.50zM195.01,631.63h2.50v2.50h-2.50zM376.03,832.66h2.50v2.50h-2.50zM379.04,653.90h2.50v2.50h-2.50zM370.14,841.90h2.50v2.50h-2.50zM378.80,664.09h2.50v2.50h-2.50zM354.07,644.26h2.50v2.50h-2.50zM164.21,632.75h2.50v2.50h-2.50zM341.56,666.65h2.50v2.50h-2.50zM353.20,645.42h2.50v2.50h-2.50zM385.77,811.76h2.50v2.50h-2.50zM380.21,629.98h2.50v2.50h-2.50zM189.73,631.96h2.50v2.50h-2.50zM369.92,844.78h2.50v2.50h-2.50zM378.77,667.26h2.50v2.50h-2.50zM349.07,651.88h2.50v2.50h-2.50zM375.89,830.70h2.50v2.50h-2.50zM379.11,651.67h2.50v2.50h-2.50zM373.66,835.15h2.50v2.50h-2.50zM378.96,656.65h2.50v2.50h-2.50zM365.79,626.33h2.50v2.50h-2.50zM198.58,631.38h2.50v2.50h-2.50zM380.17,824.45h2.50v2.50h-2.50zM379.40,644.64h2.50v2.50h-2.50zM384.77,813.82h2.50v2.50h-2.50zM380.06,632.38h2.50v2.50h-2.50zM184.97,632.21h2.50v2.50h-2.50zM364.50,630.46h2.50v2.50h-2.50zM190.51,631.91h2.50v2.50h-2.50zM370.84,842.96h2.50v2.50h-2.50zM378.79,665.28h2.50v2.50h-2.50zM352.19,647.12h2.50v2.50h-2.50zM383.16,816.76h2.50v2.50h-2.50zM379.85,635.79h2.50v2.50h-2.50zM178.22,632.48h2.50v2.50h-2.50zM356.90,642.46h2.50v2.50h-2.50zM167.47,632.72h2.50v2.50h-2.50zM345.09,661.09h2.50v2.50h-2.50zM361.66,632.50h2.50v2.50h-2.50zM186.77,632.12h2.50v2.50h-2.50zM366.57,627.19h2.50v2.50h-2.50zM196.79,631.51h2.50v2.50h-2.50zM378.09,828.58h2.50v2.50h-2.50zM379.20,649.32h2.50v2.50h-2.50zM377.38,828.00h2.50v2.50h-2.50zM379.23,648.64h2.50v2.50h-2.50zM378.45,825.95h2.50v2.50h-2.50zM379.32,646.32h2.50v2.50h-2.50zM382.12,818.90h2.50v2.50h-2.50zM379.71,638.26h2.50v2.50h-2.50zM173.30,632.62h2.50v2.50h-2.50zM351.44,651.08h2.50v2.50h-2.50zM376.96,828.66h2.50v2.50h-2.50zM379.20,649.38h2.50v2.50h-2.50zM377.28,828.19h2.50v2.50h-2.50zM379.22,648.86h2.50v2.50h-2.50zM378.11,826.61h2.50v2.50h-2.50zM379.29,647.06h2.50v2.50h-2.50zM380.94,821.17h2.50v2.50h-2.50zM379.58,640.87h2.50v2.50h-2.50zM168.13,632.72h2.50v2.50h-2.50zM345.78,660.01h2.50v2.50h-2.50zM363.31,629.98h2.50v2.50h-2.50zM191.60,631.85h2.50v2.50h-2.50zM372.09,840.47h2.50v2.50h-2.50zM378.83,662.56h2.50v2.50h-2.50zM356.48,640.57h2.50v2.50h-2.50zM171.28,632.67h2.50v2.50h-2.50zM349.25,654.53h2.50v2.50h-2.50zM371.67,838.79h2.50v2.50h-2.50zM378.86,660.67h2.50v2.50h-2.50zM359.45,636.03h2.50v2.50h-2.50zM180.00,632.42h2.50v2.50h-2.50zM358.93,639.26h2.50v2.50h-2.50zM173.62,632.62h2.50v2.50h-2.50zM351.83,650.48h2.50v2.50h-2.50zM377.88,826.89h2.50v2.50h-2.50zM379.28,647.39h2.50v2.50h-2.50zM380.43,822.15h2.50v2.50h-2.50zM379.52,641.99h2.50v2.50h-2.50zM165.90,632.74h2.50v2.50h-2.50zM343.36,663.82h2.50v2.50h-2.50zM357.50,638.85h2.50v2.50h-2.50zM174.60,632.59h2.50v2.50h-2.50zM352.91,648.77h2.50v2.50h-2.50zM380.48,821.90h2.50v2.50h-2.50zM379.54,641.70h2.50v2.50h-2.50zM166.48,632.73h2.50v2.50h-2.50zM343.99,662.84h2.50v2.50h-2.50zM359.00,636.56h2.50v2.50h-2.50zM178.99,632.46h2.50v2.50h-2.50zM357.79,641.06h2.50v2.50h-2.50zM170.18,632.69h2.50v2.50h-2.50zM348.04,656.45h2.50v2.50h-2.50zM368.75,844.40h2.50v2.50h-2.50zM378.77,666.81h2.50v2.50h-2.50zM349.78,650.79h2.50v2.50h-2.50zM377.54,827.52h2.50v2.50h-2.50zM379.25,648.10h2.50v2.50h-2.50zM379.30,824.31h2.50v2.50h-2.50zM379.40,644.46h2.50v2.50h-2.50zM385.06,813.27h2.50v2.50h-2.50zM380.10,631.74h2.50v2.50h-2.50zM186.24,632.14h2.50v2.50h-2.50zM365.95,628.17h2.50v2.50h-2.50zM194.91,631.64h2.50v2.50h-2.50zM375.91,832.90h2.50v2.50h-2.50zM379.03,654.16h2.50v2.50h-2.50zM369.72,842.71h2.50v2.50h-2.50zM378.79,664.97h2.50v2.50h-2.50zM352.67,646.38h2.50v2.50h-2.50zM384.28,814.61h2.50v2.50h-2.50zM380.00,633.30h2.50v2.50h-2.50zM183.15,632.29h2.50v2.50h-2.50zM362.44,633.71h2.50v2.50h-2.50zM184.29,632.24h2.50v2.50h-2.50zM363.75,631.64h2.50v2.50h-2.50zM188.25,632.04h2.50v2.50h-2.50zM368.26,848.09h2.50v2.50h-2.50zM378.75,670.84h2.50v2.50h-2.50zM343.44,660.46h2.50v2.50h-2.50zM362.80,630.76h2.50v2.50h-2.50zM190.11,631.94h2.50v2.50h-2.50zM370.38,843.87h2.50v2.50h-2.50zM378.78,666.26h2.50v2.50h-2.50zM350.64,649.49h2.50v2.50h-2.50zM379.54,823.70h2.50v2.50h-2.50zM379.44,643.76h2.50v2.50h-2.50zM386.17,811.14h2.50v2.50h-2.50zM380.26,629.26h2.50v2.50h-2.50zM191.16,631.87h2.50v2.50h-2.50zM371.56,841.52h2.50v2.50h-2.50zM378.81,663.70h2.50v2.50h-2.50zM354.67,643.33h2.50v2.50h-2.50zM165.99,632.74h2.50v2.50h-2.50z" fill="#000000" opacity="1.000"><title></title></path>
</g>
<text class="label" x="326.0" y="896.0" text-anchor="middle">H1(m)</text>
<text class="label" transform="translate(110.0,688.0) rotate(-90)" text-anchor="middle">H1(m+1)</text>
</g>
<g id="panel-4">
<defs>
<clipPath id="clip-panel-4"><rect x="764.0" y="526.0" width="324.0" height="324.0"/></clipPath>
</defs>
<text class="panel-title" x="926.0" y="503.0" text-anchor="middle">(d) Gamma=0.8, chaotic</text>
<rect x="764.0" y="526.0" width="324.0" height="324.0" fill="#fff"/>
<line class="axis" x1="764.0" y1="850.0" x2="764.0" y2="855.0"/>
<text class="tick" x="764.0" y="870.0" text-anchor="middle">0</text>
<line class="axis" x1="872.0" y1="850.0" x2="872.0" y2="855.0"/>
<text class="tick" x="872.0" y="870.0" text-anchor="middle">0.5</text>
<line class="axis" x1="980.0" y1="850.0" x2="980.0" y2="855.0"/>
<text class="tick" x="980.0" y="870.0" text-anchor="middle">1</text>
<line class="axis" x1="1088.0" y1="850.0" x2="1088.0" y2="855.0"/>
<text class="tick" x="1088.0" y="870.0" text-anchor="middle">1.5</text>
<line class="axis" x1="759.0" y1="850.0" x2="764.0" y2="850.0"/>
<text class="tick" x="755.0" y="854.0" text-anchor="end">0</text>
<line class="axis" x1="759.0" y1="742.0" x2="764.0" y2="742.0"/>
<text class="tick" x="755.0" y="746.0" text-anchor="end">0.5</text>
<line class="axis" x1="759.0" y1="634.0" x2="764.0" y2="634.0"/>
<text class="tick" x="755.0" y="638.0" text-anchor="end">1</text>
<line class="axis" x1="759.0" y1="526.0" x2="764.0" y2="526.0"/>
<text class="tick" x="755.0" y="530.0" text-anchor="end">1.5</text>
<rect class="axis" x="764.0" y="526.0" width="324.0" height="324.0" fill="none"/>
<g clip-path="url(#clip-panel-4)">
<polyline points="764.00,850.00 1088.00,526.00" fill="none" stroke="#777777" stroke-width="1.10" stroke-linejoin="round" stroke-linecap="round"><title></title></polyline>
<path d="M1001.13,840.67h2.50v2.50h-2.50zM981.25,683.44h2.50v2.50h-2.50zM904.97,737.49h2.50v2.50h-2.50zM815.39,614.10h2.50v2.50h-2.50zM777.31,628.14h2.50v2.50h-2.50zM940.11,680.95h2.50v2.50h-2.50zM925.35,694.15h2.50v2.50h-2.50zM901.76,740.73h2.50v2.50h-2.50zM809.56,616.42h2.50v2.50h-2.50zM1017.80,732.25h2.50v2.50h-2.50zM787.95,624.49h2.50v2.50h-2.50zM966.33,624.63h2.50v2.50h-2.50zM796.75,621.31h2.50v2.50h-2.50zM976.89,602.49h2.50v2.50h-2.50zM861.70,593.84h2.50v2.50h-2.50zM880.40,821.54h2.50v2.50h-2.50zM987.72,641.07h2.50v2.50h-2.50zM995.66,788.88h2.50v2.50h-2.50zM1000.35,844.97h2.50v2.50h-2.50zM979.90,690.86h2.50v2.50h-2.50zM889.28,768.73h2.50v2.50h-2.50zM1009.01,743.43h2.50v2.50h-2.50zM769.90,630.55h2.50v2.50h-2.50zM930.26,701.61h2.50v2.50h-2.50zM883.90,776.61h2.50v2.50h-2.50zM1005.55,769.17h2.50v2.50h-2.50zM1008.81,788.72h2.50v2.50h-2.50zM1000.42,847.68h2.50v2.50h-2.50zM979.07,695.59h2.50v2.50h-2.50zM879.30,788.51h2.50v2.50h-2.50zM1000.51,809.68h2.50v2.50h-2.50zM992.09,627.27h2.50v2.50h-2.50zM773.05,629.54h2.50v2.50h-2.50zM934.52,692.67h2.50v2.50h-2.50zM901.80,741.15h2.50v2.50h-2.50zM808.66,616.77h2.50v2.50h-2.50zM1015.87,738.23h2.50v2.50h-2.50zM777.85,627.96h2.50v2.50h-2.50zM945.95,668.20h2.50v2.50h-2.50zM951.16,642.21h2.50v2.50h-2.50zM1006.38,753.86h2.50v2.50h-2.50zM1015.76,742.78h2.50v2.50h-2.50zM770.01,630.51h2.50v2.50h-2.50zM930.30,701.53h2.50v2.50h-2.50zM884.04,776.33h2.50v2.50h-2.50zM1005.67,768.22h2.50v2.50h-2.50zM1009.23,785.91h2.50v2.50h-2.50zM1001.59,839.49h2.50v2.50h-2.50zM981.62,681.44h2.50v2.50h-2.50zM909.21,729.00h2.50v2.50h-2.50zM832.11,607.15h2.50v2.50h-2.50zM833.01,606.76h2.50v2.50h-2.50zM795.24,621.87h2.50v2.50h-2.50zM971.43,614.35h2.50v2.50h-2.50zM826.84,609.38h2.50v2.50h-2.50zM778.65,627.70h2.50v2.50h-2.50zM941.77,677.47h2.50v2.50h-2.50zM932.36,680.08h2.50v2.50h-2.50zM929.94,684.45h2.50v2.50h-2.50zM921.26,701.84h2.50v2.50h-2.50zM886.51,770.95h2.50v2.50h-2.50zM1008.03,750.01h2.50v2.50h-2.50zM1017.56,731.52h2.50v2.50h-2.50zM789.25,624.03h2.50v2.50h-2.50zM968.98,618.96h2.50v2.50h-2.50zM813.46,614.87h2.50v2.50h-2.50zM1007.21,767.13h2.50v2.50h-2.50zM1009.72,783.01h2.50v2.50h-2.50zM1002.81,831.01h2.50v2.50h-2.50zM984.42,666.54h2.50v2.50h-2.50zM940.79,665.49h2.50v2.50h-2.50zM958.89,626.18h2.50v2.50h-2.50zM796.05,621.57h2.50v2.50h-2.50zM975.83,604.74h2.50v2.50h-2.50zM855.11,596.91h2.50v2.50h-2.50zM860.96,594.19h2.50v2.50h-2.50zM876.81,827.72h2.50v2.50h-2.50zM985.55,653.64h2.50v2.50h-2.50zM968.75,608.68h2.50v2.50h-2.50zM846.55,600.80h2.50v2.50h-2.50zM836.11,605.42h2.50v2.50h-2.50zM802.91,618.99h2.50v2.50h-2.50zM985.42,834.86h2.50v2.50h-2.50zM983.13,670.80h2.50v2.50h-2.50zM931.93,683.35h2.50v2.50h-2.50zM922.96,698.51h2.50v2.50h-2.50zM893.13,757.84h2.50v2.50h-2.50zM776.13,628.53h2.50v2.50h-2.50zM948.33,662.76h2.50v2.50h-2.50zM962.23,619.80h2.50v2.50h-2.50zM814.62,614.41h2.50v2.50h-2.50zM1009.53,759.98h2.50v2.50h-2.50zM1012.95,762.05h2.50v2.50h-2.50zM1012.01,769.09h2.50v2.50h-2.50zM1008.85,790.05h2.50v2.50h-2.50zM999.87,591.56h2.50v2.50h-2.50zM883.28,816.85h2.50v2.50h-2.50zM989.42,631.53h2.50v2.50h-2.50zM1016.11,728.85h2.50v2.50h-2.50zM794.11,622.28h2.50v2.50h-2.50zM978.98,597.49h2.50v2.50h-2.50zM876.48,827.80h2.50v2.50h-2.50zM985.52,653.70h2.50v2.50h-2.50zM968.62,608.94h2.50v2.50h-2.50zM845.78,601.15h2.50v2.50h-2.50zM833.85,606.40h2.50v2.50h-2.50zM796.27,621.49h2.50v2.50h-2.50zM973.28,610.40h2.50v2.50h-2.50zM838.42,604.41h2.50v2.50h-2.50zM812.14,615.40h2.50v2.50h-2.50zM1002.54,781.86h2.50v2.50h-2.50zM1003.30,825.85h2.50v2.50h-2.50zM986.20,657.32h2.50v2.50h-2.50zM960.40,625.75h2.50v2.50h-2.50zM796.58,621.37h2.50v2.50h-2.50zM976.74,602.79h2.50v2.50h-2.50zM860.81,594.26h2.50v2.50h-2.50zM877.75,826.07h2.50v2.50h-2.50zM986.12,650.30h2.50v2.50h-2.50zM975.89,847.08h2.50v2.50h-2.50zM979.25,690.86h2.50v2.50h-2.50zM889.54,768.19h2.50v2.50h-2.50zM1009.25,741.61h2.50v2.50h-2.50zM773.01,629.55h2.50v2.50h-2.50zM936.43,688.47h2.50v2.50h-2.50zM910.26,724.31h2.50v2.50h-2.50zM841.81,602.91h2.50v2.50h-2.50zM865.71,845.61h2.50v2.50h-2.50zM979.70,689.16h2.50v2.50h-2.50zM893.07,761.18h2.50v2.50h-2.50zM769.12,630.79h2.50v2.50h-2.50zM934.09,693.13h2.50v2.50h-2.50zM900.95,742.84h2.50v2.50h-2.50zM805.35,618.06h2.50v2.50h-2.50zM1008.86,759.96h2.50v2.50h-2.50zM1012.95,761.83h2.50v2.50h-2.50zM1012.10,768.45h2.50v2.50h-2.50zM1009.13,788.16h2.50v2.50h-2.50zM1000.65,846.12h2.50v2.50h-2.50zM979.55,692.90h2.50v2.50h-2.50zM884.97,777.30h2.50v2.50h-2.50zM1005.26,772.20h2.50v2.50h-2.50zM1007.48,797.73h2.50v2.50h-2.50zM996.75,605.94h2.50v2.50h-2.50zM838.97,604.17h2.50v2.50h-2.50zM812.72,615.17h2.50v2.50h-2.50zM1003.61,778.55h2.50v2.50h-2.50zM1004.71,816.28h2.50v2.50h-2.50zM989.62,640.10h2.50v2.50h-2.50zM997.08,784.87h2.50v2.50h-2.50zM1002.03,833.45h2.50v2.50h-2.50zM983.60,670.79h2.50v2.50h-2.50zM931.79,683.66h2.50v2.50h-2.50zM922.34,699.75h2.50v2.50h-2.50zM890.65,762.77h2.50v2.50h-2.50zM766.56,631.59h2.50v2.50h-2.50zM929.06,703.85h2.50v2.50h-2.50zM879.46,785.36h2.50v2.50h-2.50zM1001.82,798.42h2.50v2.50h-2.50zM996.48,606.39h2.50v2.50h-2.50zM837.71,604.72h2.50v2.50h-2.50zM809.04,616.62h2.50v2.50h-2.50zM996.77,799.69h2.50v2.50h-2.50zM995.97,608.03h2.50v2.50h-2.50zM832.72,606.88h2.50v2.50h-2.50zM794.56,622.11h2.50v2.50h-2.50zM970.22,616.93h2.50v2.50h-2.50zM819.24,612.54h2.50v2.50h-2.50zM1017.86,734.34h2.50v2.50h-2.50zM784.31,625.77h2.50v2.50h-2.50zM958.91,640.50h2.50v2.50h-2.50zM1007.39,751.60h2.50v2.50h-2.50zM1016.81,736.20h2.50v2.50h-2.50zM781.24,626.82h2.50v2.50h-2.50zM952.74,653.70h2.50v2.50h-2.50zM980.54,830.18h2.50v2.50h-2.50zM984.70,661.72h2.50v2.50h-2.50zM951.27,644.23h2.50v2.50h-2.50zM1001.89,767.09h2.50v2.50h-2.50zM1009.74,781.61h2.50v2.50h-2.50zM1003.41,826.87h2.50v2.50h-2.50zM985.84,659.19h2.50v2.50h-2.50zM956.42,633.82h2.50v2.50h-2.50zM772.90,629.59h2.50v2.50h-2.50zM935.22,691.11h2.50v2.50h-2.50zM904.94,734.92h2.50v2.50h-2.50zM820.90,611.86h2.50v2.50h-2.50zM795.72,621.69h2.50v2.50h-2.50zM973.09,610.74h2.50v2.50h-2.50zM837.44,604.84h2.50v2.50h-2.50zM809.31,616.52h2.50v2.50h-2.50zM997.29,798.08h2.50v2.50h-2.50zM996.61,605.08h2.50v2.50h-2.50zM841.84,602.90h2.50v2.50h-2.50zM821.10,611.77h2.50v2.50h-2.50zM1019.31,730.16h2.50v2.50h-2.50zM791.36,623.28h2.50v2.50h-2.50zM973.24,609.82h2.50v2.50h-2.50zM840.30,603.58h2.50v2.50h-2.50zM817.64,613.19h2.50v2.50h-2.50zM1012.83,750.11h2.50v2.50h-2.50zM1017.51,732.96h2.50v2.50h-2.50zM786.75,624.92h2.50v2.50h-2.50zM963.89,629.84h2.50v2.50h-2.50zM781.40,626.77h2.50v2.50h-2.50zM949.77,660.25h2.50v2.50h-2.50zM967.22,609.72h2.50v2.50h-2.50zM844.09,601.90h2.50v2.50h-2.50zM828.96,608.49h2.50v2.50h-2.50zM781.92,626.59h2.50v2.50h-2.50zM947.49,665.33h2.50v2.50h-2.50zM956.88,630.65h2.50v2.50h-2.50zM782.83,626.28h2.50v2.50h-2.50zM952.45,654.54h2.50v2.50h-2.50zM978.79,835.31h2.50v2.50h-2.50zM982.99,670.61h2.50v2.50h-2.50zM932.41,682.38h2.50v2.50h-2.50zM924.93,694.58h2.50v2.50h-2.50zM900.98,742.27h2.50v2.50h-2.50zM806.55,617.59h2.50v2.50h-2.50zM1011.42,752.02h2.50v2.50h-2.50zM1016.62,738.41h2.50v2.50h-2.50zM777.43,628.10h2.50v2.50h-2.50zM945.08,670.05h2.50v2.50h-2.50zM947.42,649.76h2.50v2.50h-2.50zM991.08,798.59h2.50v2.50h-2.50zM996.41,605.10h2.50v2.50h-2.50zM841.87,602.89h2.50v2.50h-2.50zM821.20,611.73h2.50v2.50h-2.50zM1019.51,729.55h2.50v2.50h-2.50zM792.38,622.91h2.50v2.50h-2.50zM975.34,605.32h2.50v2.50h-2.50zM853.52,597.64h2.50v2.50h-2.50zM856.31,596.35h2.50v2.50h-2.50zM862.89,593.28h2.50v2.50h-2.50zM882.55,817.88h2.50v2.50h-2.50zM989.04,633.59h2.50v2.50h-2.50zM1011.69,741.80h2.50v2.50h-2.50zM772.30,629.78h2.50v2.50h-2.50zM934.97,691.60h2.50v2.50h-2.50zM903.98,736.83h2.50v2.50h-2.50zM817.14,613.39h2.50v2.50h-2.50zM783.24,626.14h2.50v2.50h-2.50zM950.62,658.62h2.50v2.50h-2.50zM970.49,603.09h2.50v2.50h-2.50zM863.44,593.03h2.50v2.50h-2.50zM885.81,812.22h2.50v2.50h-2.50zM991.13,621.93h2.50v2.50h-2.50zM790.87,623.46h2.50v2.50h-2.50zM965.71,626.38h2.50v2.50h-2.50zM791.50,623.23h2.50v2.50h-2.50zM967.53,622.44h2.50v2.50h-2.50zM803.11,618.92h2.50v2.50h-2.50zM988.33,825.50h2.50v2.50h-2.50zM986.32,654.45h2.50v2.50h-2.50zM966.67,612.97h2.50v2.50h-2.50zM833.99,606.33h2.50v2.50h-2.50zM799.55,620.26h2.50v2.50h-2.50zM979.33,597.48h2.50v2.50h-2.50zM876.32,828.07h2.50v2.50h-2.50zM985.43,654.26h2.50v2.50h-2.50zM967.42,611.38h2.50v2.50h-2.50zM838.65,604.31h2.50v2.50h-2.50zM813.06,615.03h2.50v2.50h-2.50zM1004.27,776.51h2.50v2.50h-2.50zM1005.60,810.36h2.50v2.50h-2.50zM991.84,629.29h2.50v2.50h-2.50zM766.68,631.55h2.50v2.50h-2.50zM923.65,715.68h2.50v2.50h-2.50zM855.80,831.73h2.50v2.50h-2.50zM984.18,655.86h2.50v2.50h-2.50zM964.38,617.53h2.50v2.50h-2.50zM820.69,611.94h2.50v2.50h-2.50zM1020.73,725.52h2.50v2.50h-2.50zM799.23,620.39h2.50v2.50h-2.50zM989.40,821.16h2.50v2.50h-2.50zM987.85,646.73h2.50v2.50h-2.50zM983.12,825.89h2.50v2.50h-2.50zM986.18,654.38h2.50v2.50h-2.50zM966.88,612.54h2.50v2.50h-2.50zM835.24,605.80h2.50v2.50h-2.50zM803.17,618.90h2.50v2.50h-2.50zM985.94,833.21h2.50v2.50h-2.50zM983.68,667.95h2.50v2.50h-2.50zM937.99,671.11h2.50v2.50h-2.50zM947.56,649.06h2.50v2.50h-2.50zM992.56,794.24h2.50v2.50h-2.50zM998.16,597.09h2.50v2.50h-2.50zM866.57,845.00h2.50v2.50h-2.50zM979.89,688.10h2.50v2.50h-2.50zM895.30,756.75h2.50v2.50h-2.50zM777.73,628.00h2.50v2.50h-2.50zM951.50,655.98h2.50v2.50h-2.50zM975.98,843.52h2.50v2.50h-2.50zM980.35,684.68h2.50v2.50h-2.50zM902.61,742.17h2.50v2.50h-2.50zM806.22,617.72h2.50v2.50h-2.50zM1010.62,754.49h2.50v2.50h-2.50zM1015.47,745.71h2.50v2.50h-2.50zM764.99,632.07h2.50v2.50h-2.50zM920.38,722.60h2.50v2.50h-2.50zM842.03,602.82h2.50v2.50h-2.50zM865.60,845.83h2.50v2.50h-2.50zM979.64,689.58h2.50v2.50h-2.50zM892.18,762.95h2.50v2.50h-2.50zM765.67,631.86h2.50v2.50h-2.50zM927.20,707.81h2.50v2.50h-2.50zM871.54,800.93h2.50v2.50h-2.50zM995.48,591.65h2.50v2.50h-2.50zM885.57,812.85h2.50v2.50h-2.50zM990.90,623.27h2.50v2.50h-2.50zM786.69,624.94h2.50v2.50h-2.50zM958.32,642.12h2.50v2.50h-2.50zM1004.04,761.40h2.50v2.50h-2.50zM1012.30,765.00h2.50v2.50h-2.50zM1010.68,777.83h2.50v2.50h-2.50zM1005.03,815.84h2.50v2.50h-2.50zM989.79,639.34h2.50v2.50h-2.50zM998.72,780.07h2.50v2.50h-2.50zM1004.07,819.61h2.50v2.50h-2.50zM988.41,646.10h2.50v2.50h-2.50zM984.31,822.45h2.50v2.50h-2.50zM987.40,648.31h2.50v2.50h-2.50zM979.80,835.65h2.50v2.50h-2.50zM982.87,671.36h2.50v2.50h-2.50zM930.80,685.62h2.50v2.50h-2.50zM918.43,707.58h2.50v2.50h-2.50zM875.06,793.51h2.50v2.50h-2.50zM998.45,825.44h2.50v2.50h-2.50zM986.34,655.86h2.50v2.50h-2.50zM963.57,619.30h2.50v2.50h-2.50zM815.46,614.07h2.50v2.50h-2.50zM1011.05,755.30h2.50v2.50h-2.50zM1015.10,748.26h2.50v2.50h-2.50zM1018.38,727.89h2.50v2.50h-2.50zM795.46,621.79h2.50v2.50h-2.50zM981.68,845.24h2.50v2.50h-2.50zM979.82,688.51h2.50v2.50h-2.50zM894.44,758.45h2.50v2.50h-2.50zM774.42,629.10h2.50v2.50h-2.50zM944.77,670.36h2.50v2.50h-2.50zM946.83,650.93h2.50v2.50h-2.50zM988.72,805.49h2.50v2.50h-2.50zM993.70,617.71h2.50v2.50h-2.50zM802.91,618.99h2.50v2.50h-2.50zM987.26,828.91h2.50v2.50h-2.50zM985.14,660.43h2.50v2.50h-2.50zM953.96,638.80h2.50v2.50h-2.50zM1012.91,734.92h2.50v2.50h-2.50zM784.03,625.86h2.50v2.50h-2.50zM958.50,641.38h2.50v2.50h-2.50zM1005.61,756.80h2.50v2.50h-2.50zM1014.40,751.51h2.50v2.50h-2.50zM1016.85,737.60h2.50v2.50h-2.50zM778.80,627.65h2.50v2.50h-2.50zM947.82,664.20h2.50v2.50h-2.50zM959.24,625.87h2.50v2.50h-2.50zM796.84,621.28h2.50v2.50h-2.50zM977.24,601.73h2.50v2.50h-2.50zM863.93,592.80h2.50v2.50h-2.50zM886.98,810.22h2.50v2.50h-2.50zM991.89,617.78h2.50v2.50h-2.50zM803.77,618.66h2.50v2.50h-2.50zM988.88,823.89h2.50v2.50h-2.50zM986.88,651.61h2.50v2.50h-2.50zM972.72,600.65h2.50v2.50h-2.50zM869.98,838.58h2.50v2.50h-2.50zM981.92,675.28h2.50v2.50h-2.50zM922.56,702.18h2.50v2.50h-2.50zM885.31,773.39h2.50v2.50h-2.50zM1006.95,758.25h2.50v2.50h-2.50zM1013.74,756.21h2.50v2.50h-2.50zM1014.68,751.66h2.50v2.50h-2.50zM1016.79,738.10h2.50v2.50h-2.50zM777.94,627.93h2.50v2.50h-2.50zM946.10,667.88h2.50v2.50h-2.50zM951.81,640.90h2.50v2.50h-2.50zM1009.04,746.11h2.50v2.50h-2.50zM765.26,631.99h2.50v2.50h-2.50zM921.09,721.08h2.50v2.50h-2.50zM845.05,601.47h2.50v2.50h-2.50zM875.78,828.42h2.50v2.50h-2.50zM985.31,654.86h2.50v2.50h-2.50zM966.15,613.96h2.50v2.50h-2.50zM831.09,607.58h2.50v2.50h-2.50zM791.17,623.35h2.50v2.50h-2.50zM964.11,629.95h2.50v2.50h-2.50zM780.93,626.93h2.50v2.50h-2.50zM948.93,662.03h2.50v2.50h-2.50zM963.60,617.04h2.50v2.50h-2.50zM822.69,611.12h2.50v2.50h-2.50zM767.02,631.45h2.50v2.50h-2.50zM921.49,720.41h2.50v2.50h-2.50zM846.36,600.89h2.50v2.50h-2.50zM880.16,820.90h2.50v2.50h-2.50zM987.95,639.56h2.50v2.50h-2.50zM998.90,779.35h2.50v2.50h-2.50zM1004.37,817.52h2.50v2.50h-2.50zM989.17,642.32h2.50v2.50h-2.50zM992.36,798.75h2.50v2.50h-2.50zM996.34,605.60h2.50v2.50h-2.50zM840.30,603.58h2.50v2.50h-2.50zM816.63,613.60h2.50v2.50h-2.50zM1010.90,756.04h2.50v2.50h-2.50zM1014.75,750.48h2.50v2.50h-2.50zM1017.34,734.54h2.50v2.50h-2.50zM784.03,625.87h2.50v2.50h-2.50zM958.37,641.66h2.50v2.50h-2.50zM1005.05,758.45h2.50v2.50h-2.50zM1013.65,756.35h2.50v2.50h-2.50zM1014.61,752.07h2.50v2.50h-2.50zM1016.59,739.34h2.50v2.50h-2.50zM775.82,628.64h2.50v2.50h-2.50zM941.85,676.94h2.50v2.50h-2.50zM933.49,677.79h2.50v2.50h-2.50zM934.54,675.21h2.50v2.50h-2.50zM939.82,664.58h2.50v2.50h-2.50zM961.23,621.37h2.50v2.50h-2.50zM810.16,616.18h2.50v2.50h-2.50zM1001.36,785.19h2.50v2.50h-2.50zM1001.90,835.43h2.50v2.50h-2.50zM982.94,674.29h2.50v2.50h-2.50zM924.35,698.63h2.50v2.50h-2.50zM892.38,759.41h2.50v2.50h-2.50zM773.06,629.54h2.50v2.50h-2.50zM942.12,676.02h2.50v2.50h-2.50zM935.41,673.94h2.50v2.50h-2.50zM942.30,659.61h2.50v2.50h-2.50zM971.25,601.06h2.50v2.50h-2.50zM869.49,839.36h2.50v2.50h-2.50zM981.67,676.83h2.50v2.50h-2.50zM919.27,708.79h2.50v2.50h-2.50zM872.15,799.32h2.50v2.50h-2.50zM996.12,844.70h2.50v2.50h-2.50zM979.98,689.74h2.50v2.50h-2.50zM891.69,763.95h2.50v2.50h-2.50zM763.73,632.45h2.50v2.50h-2.50zM923.33,716.04h2.50v2.50h-2.50zM855.14,833.01h2.50v2.50h-2.50zM983.75,658.46h2.50v2.50h-2.50zM958.82,628.83h2.50v2.50h-2.50zM787.58,624.63h2.50v2.50h-2.50zM960.75,636.88h2.50v2.50h-2.50zM1014.74,730.19h2.50v2.50h-2.50zM791.99,623.05h2.50v2.50h-2.50zM974.67,606.74h2.50v2.50h-2.50zM849.34,599.54h2.50v2.50h-2.50zM844.04,601.93h2.50v2.50h-2.50zM826.37,609.58h2.50v2.50h-2.50zM774.22,629.16h2.50v2.50h-2.50zM933.93,694.10h2.50v2.50h-2.50zM898.89,746.94h2.50v2.50h-2.50zM797.31,621.10h2.50v2.50h-2.50zM991.97,812.47h2.50v2.50h-2.50zM991.04,631.16h2.50v2.50h-2.50zM1016.33,728.37h2.50v2.50h-2.50zM794.91,621.99h2.50v2.50h-2.50zM980.62,848.55h2.50v2.50h-2.50zM978.81,694.11h2.50v2.50h-2.50zM882.62,781.92h2.50v2.50h-2.50zM1003.28,787.67h2.50v2.50h-2.50zM1000.86,843.23h2.50v2.50h-2.50zM980.44,687.89h2.50v2.50h-2.50zM895.56,756.25h2.50v2.50h-2.50zM778.69,627.68h2.50v2.50h-2.50zM953.45,651.82h2.50v2.50h-2.50zM984.43,818.76h2.50v2.50h-2.50zM988.72,641.61h2.50v2.50h-2.50zM994.10,793.58h2.50v2.50h-2.50zM998.42,596.07h2.50v2.50h-2.50zM869.67,839.81h2.50v2.50h-2.50zM981.52,677.85h2.50v2.50h-2.50zM917.08,713.19h2.50v2.50h-2.50zM863.41,816.43h2.50v2.50h-2.50zM989.57,624.21h2.50v2.50h-2.50zM784.43,625.73h2.50v2.50h-2.50zM954.39,650.49h2.50v2.50h-2.50zM987.02,811.19h2.50v2.50h-2.50zM991.52,628.06h2.50v2.50h-2.50zM770.87,630.24h2.50v2.50h-2.50zM930.79,700.56h2.50v2.50h-2.50zM885.97,772.53h2.50v2.50h-2.50zM1007.33,755.45h2.50v2.50h-2.50zM1015.03,747.83h2.50v2.50h-2.50zM1018.58,726.58h2.50v2.50h-2.50zM797.71,620.95h2.50v2.50h-2.50zM986.32,830.78h2.50v2.50h-2.50zM984.50,663.64h2.50v2.50h-2.50zM947.13,652.63h2.50v2.50h-2.50zM984.87,816.88h2.50v2.50h-2.50zM989.40,638.23h2.50v2.50h-2.50zM1001.30,772.42h2.50v2.50h-2.50zM1007.38,797.43h2.50v2.50h-2.50zM996.87,605.35h2.50v2.50h-2.50zM840.80,603.36h2.50v2.50h-2.50zM818.04,613.03h2.50v2.50h-2.50zM1013.56,747.85h2.50v2.50h-2.50zM1018.57,726.29h2.50v2.50h-2.50zM798.21,620.77h2.50v2.50h-2.50zM987.37,827.51h2.50v2.50h-2.50zM985.62,657.93h2.50v2.50h-2.50z" fill="#000000" opacity="1.000"><title></title></path>
</g>
<text class="label" x="926.0" y="896.0" text-anchor="middle">H1(m)</text>
<text class="label" transform="translate(710.0,688.0) rotate(-90)" text-anchor="middle">H1(m+1)</text>
</g>
</svg>