<svg xmlns="http://www.w3.org/2000/svg" width="900" height="668" viewBox="0 0 900 668">
<style>
text{font-family:'Times New Roman',Times,serif;fill:#111}
.axis{stroke:#111;stroke-width:1.7}
.grid{stroke:#d8d8d8;stroke-width:.75}
.title{font-size:20px;font-weight:700}
.panel-title{font-size:15px;font-weight:700}
.label{font-size:13px}
.tick{font-size:11px;fill:#444}
.legend{font-size:12px}
</style>
<rect width="100%" height="100%" fill="#ffffff"/>
<text class="title" x="450.0" y="30" text-anchor="middle">Fig. 8 reproduction: regular / periodic-chaotic transition</text>
<g id="panel-1">
<defs>
<clipPath id="clip-panel-1"><rect x="74.0" y="96.0" width="804.0" height="504.0"/></clipPath>
</defs>
<text class="panel-title" x="476.0" y="73.0" text-anchor="middle">S1 = S2</text>
<rect x="74.0" y="96.0" width="804.0" height="504.0" fill="#fff"/>
<line class="axis" x1="74.0" y1="600.0" x2="74.0" y2="605.0"/>
<text class="tick" x="74.0" y="620.0" text-anchor="middle">0</text>
<line class="axis" x1="275.0" y1="600.0" x2="275.0" y2="605.0"/>
<text class="tick" x="275.0" y="620.0" text-anchor="middle">0.2</text>
<line class="axis" x1="476.0" y1="600.0" x2="476.0" y2="605.0"/>
<text class="tick" x="476.0" y="620.0" text-anchor="middle">0.4</text>
<line class="axis" x1="677.0" y1="600.0" x2="677.0" y2="605.0"/>
<text class="tick" x="677.0" y="620.0" text-anchor="middle">0.6</text>
<line class="axis" x1="878.0" y1="600.0" x2="878.0" y2="605.0"/>
<text class="tick" x="878.0" y="620.0" text-anchor="middle">0.8</text>
<line class="axis" x1="69.0" y1="600.0" x2="74.0" y2="600.0"/>
<text class="tick" x="65.0" y="604.0" text-anchor="end">0</text>
<line class="axis" x1="69.0" y1="432.0" x2="74.0" y2="432.0"/>
<text class="tick" x="65.0" y="436.0" text-anchor="end">0.5</text>
<line class="axis" x1="69.0" y1="264.0" x2="74.0" y2="264.0"/>
<text class="tick" x="65.0" y="268.0" text-anchor="end">1</text>
<line class="axis" x1="69.0" y1="96.0" x2="74.0" y2="96.0"/>
<text class="tick" x="65.0" y="100.0" text-anchor="end">1.5</text>
<rect class="axis" x="74.0" y="96.0" width="804.0" height="504.0" fill="none"/>
<g clip-path="url(#clip-panel-1)">
<path d="M75.92,600.00m-2.80,0a2.80,2.80 0 1,0 5.60,0a2.80,2.80 0 1,0 -5.60,0M124.03,583.20m-2.80,0a2.80,2.80 0 1,0 5.60,0a2.80,2.80 0 1,0 -5.60,0M166.94,566.40m-2.80,0a2.80,2.80 0 1,0 5.60,0a2.80,2.80 0 1,0 -5.60,0M205.86,549.60m-2.80,0a2.80,2.80 0 1,0 5.60,0a2.80,2.80 0 1,0 -5.60,0M241.46,532.80m-2.80,0a2.80,2.80 0 1,0 5.60,0a2.80,2.80 0 1,0 -5.60,0M274.00,516.00m-2.80,0a2.80,2.80 0 1,0 5.60,0a2.80,2.80 0 1,0 -5.60,0M303.81,499.20m-2.80,0a2.80,2.80 0 1,0 5.60,0a2.80,2.80 0 1,0 -5.60,0M331.17,482.40m-2.80,0a2.80,2.80 0 1,0 5.60,0a2.80,2.80 0 1,0 -5.60,0M356.36,465.60m-2.80,0a2.80,2.80 0 1,0 5.60,0a2.80,2.80 0 1,0 -5.60,0M379.62,448.80m-2.80,0a2.80,2.80 0 1,0 5.60,0a2.80,2.80 0 1,0 -5.60,0M409.00,432.00m-2.80,0a2.80,2.80 0 1,0 5.60,0a2.80,2.80 0 1,0 -5.60,0M430.61,415.20m-2.80,0a2.80,2.80 0 1,0 5.60,0a2.80,2.80 0 1,0 -5.60,0M450.88,398.40m-2.80,0a2.80,2.80 0 1,0 5.60,0a2.80,2.80 0 1,0 -5.60,0M469.91,381.60m-2.80,0a2.80,2.80 0 1,0 5.60,0a2.80,2.80 0 1,0 -5.60,0M487.82,364.80m-2.80,0a2.80,2.80 0 1,0 5.60,0a2.80,2.80 0 1,0 -5.60,0M504.71,348.00m-2.80,0a2.80,2.80 0 1,0 5.60,0a2.80,2.80 0 1,0 -5.60,0M520.67,331.20m-2.80,0a2.80,2.80 0 1,0 5.60,0a2.80,2.80 0 1,0 -5.60,0M535.76,314.40m-2.80,0a2.80,2.80 0 1,0 5.60,0a2.80,2.80 0 1,0 -5.60,0M550.05,297.60m-2.80,0a2.80,2.80 0 1,0 5.60,0a2.80,2.80 0 1,0 -5.60,0M563.62,280.80m-2.80,0a2.80,2.80 0 1,0 5.60,0a2.80,2.80 0 1,0 -5.60,0M576.50,264.00m-2.80,0a2.80,2.80 0 1,0 5.60,0a2.80,2.80 0 1,0 -5.60,0M588.76,247.20m-2.80,0a2.80,2.80 0 1,0 5.60,0a2.80,2.80 0 1,0 -5.60,0M600.43,230.40m-2.80,0a2.80,2.80 0 1,0 5.60,0a2.80,2.80 0 1,0 -5.60,0M611.56,213.60m-2.80,0a2.80,2.80 0 1,0 5.60,0a2.80,2.80 0 1,0 -5.60,0M827.75,196.80m-2.80,0a2.80,2.80 0 1,0 5.60,0a2.80,2.80 0 1,0 -5.60,0M632.33,180.00m-2.80,0a2.80,2.80 0 1,0 5.60,0a2.80,2.80 0 1,0 -5.60,0M642.04,163.20m-2.80,0a2.80,2.80 0 1,0 5.60,0a2.80,2.80 0 1,0 -5.60,0M651.34,146.40m-2.80,0a2.80,2.80 0 1,0 5.60,0a2.80,2.80 0 1,0 -5.60,0M660.25,129.60m-2.80,0a2.80,2.80 0 1,0 5.60,0a2.80,2.80 0 1,0 -5.60,0M668.80,112.80m-2.80,0a2.80,2.80 0 1,0 5.60,0a2.80,2.80 0 1,0 -5.60,0M677.00,96.00m-2.80,0a2.80,2.80 0 1,0 5.60,0a2.80,2.80 0 1,0 -5.60,0" fill="#000000" opacity="1.000"><title>simulation</title></path>
<polyline points="74.00,600.00 121.86,583.20 165.36,566.40 205.09,549.60 241.50,532.80 275.00,516.00 305.92,499.20 334.56,482.40 361.14,465.60 385.90,448.80 409.00,432.00 430.61,415.20 450.87,398.40 469.91,381.60 487.82,364.80 504.71,348.00 520.67,331.20 535.76,314.40 550.05,297.60 563.62,280.80 576.50,264.00 588.76,247.20 600.43,230.40 611.56,213.60 622.18,196.80 632.33,180.00 642.04,163.20 651.34,146.40 660.25,129.60 668.80,112.80 677.00,96.00" fill="none" stroke="#d62728" stroke-width="2.00" stroke-linejoin="round" stroke-linecap="round"><title>Gamma=S/(1+S)</title></polyline>
</g>
<text class="label" x="476.0" y="646.0" text-anchor="middle">Loading parameter Gamma</text>
<text class="label" transform="translate(20.0,348.0) rotate(-90)" text-anchor="middle">Speedup parameter S</text>
<line x1="83.0" y1="109.0" x2="100.0" y2="109.0" stroke="#000000" stroke-width="2"/>
<text class="legend" x="106.0" y="113.0">simulation</text>
<line x1="83.0" y1="126.0" x2="100.0" y2="126.0" stroke="#d62728" stroke-width="2"/>
<text class="legend" x="106.0" y="130.0">Gamma=S/(1+S)</text>
</g>
</svg>